<?xml version="1.0" standalone="no"?>
<!DOCTYPE svg PUBLIC "-//W3C//DTD SVG 20010904//EN"
 "http://www.w3.org/TR/2001/REC-SVG-20010904/DTD/svg10.dtd">
<svg version="1.0" xmlns="http://www.w3.org/2000/svg"
 width="14400.000000pt" height="270.000000pt" viewBox="0 0 14400.000000 270.000000"
 preserveAspectRatio="xMidYMid meet">
<metadata>
Created by potrace 1.12, written by Peter Selinger 2001-2015
</metadata>
<g transform="translate(0.000000,270.000000) scale(0.100000,-0.100000)"
fill="#000000" stroke="none">
<path d="M38007 2688 c-2 -7 -1 -20 4 -29 5 -9 3 -26 -5 -40 -11 -22 -11 -25
7 -26 10 -1 22 -5 25 -8 4 -3 -10 -39 -31 -79 -32 -63 -55 -136 -41 -136 2 0
17 30 34 67 17 37 49 91 72 120 39 52 42 53 60 36 11 -10 17 -25 14 -36 -3
-14 0 -17 12 -13 15 5 15 4 2 -7 -8 -6 -16 -19 -18 -27 -2 -8 -11 -23 -19 -32
-10 -11 -11 -18 -5 -18 6 0 16 9 22 21 7 11 14 18 17 16 2 -3 -1 -16 -8 -29
-12 -22 -11 -23 8 -5 24 21 43 22 43 2 0 -20 13 -19 52 5 43 26 56 25 54 -2
-1 -13 -11 -28 -26 -35 -26 -13 -35 -40 -12 -35 14 3 12 -4 -18 -48 -25 -37
-104 -189 -86 -165 8 11 23 29 32 40 15 19 15 18 0 -7 -9 -15 -16 -35 -16 -43
0 -9 -12 -36 -26 -61 -14 -24 -24 -44 -21 -44 3 0 20 26 38 58 18 31 54 86 79
120 25 35 52 74 60 85 8 12 31 43 52 68 21 26 38 57 38 70 0 24 -1 23 -26 -6
l-26 -30 26 37 c24 33 26 45 26 132 l0 96 -194 0 c-146 0 -195 -3 -199 -12z"/>
<path d="M42629 2643 c-69 -125 -79 -144 -79 -151 0 -4 5 0 11 8 8 12 9 11 6
-5 -2 -11 -8 -19 -14 -18 -6 1 -10 -5 -9 -15 0 -9 -3 -16 -9 -15 -11 2 -14
-61 -3 -72 4 -4 1 -20 -8 -36 -14 -28 -14 -29 11 -29 14 0 25 -4 25 -8 0 -5
-18 -43 -40 -86 -22 -42 -40 -89 -39 -104 0 -22 7 -14 30 38 24 51 71 124 116
179 1 2 12 -4 23 -14 13 -12 18 -25 14 -38 -5 -16 -3 -19 10 -14 10 4 15 3 11
-3 -3 -6 -14 -10 -23 -10 -12 0 -13 -3 -5 -8 9 -5 2 -20 -22 -51 -41 -51 -46
-68 -10 -28 30 31 40 35 30 10 -4 -13 -1 -12 15 5 20 22 57 32 45 12 -13 -21
24 -20 60 1 29 18 39 19 45 9 11 -17 -10 -50 -31 -50 -19 0 -33 -26 -19 -35 6
-4 15 -3 22 1 6 4 -3 -14 -20 -39 -18 -25 -32 -48 -32 -51 0 -3 -16 -32 -35
-65 -46 -78 -45 -91 1 -21 41 62 70 95 35 40 -21 -34 -27 -46 -57 -120 l-15
-35 20 25 c12 14 21 28 21 32 0 6 78 122 107 158 42 54 113 147 142 187 36 49
111 126 118 120 2 -2 -6 -12 -17 -22 -11 -10 -20 -24 -20 -31 0 -6 -11 -22
-25 -35 -13 -13 -25 -28 -25 -32 0 -5 -26 -41 -58 -80 -32 -40 -67 -85 -77
-102 -41 -66 -114 -218 -109 -226 3 -5 0 -8 -6 -7 -7 2 -16 -7 -21 -20 -6 -15
-5 -21 1 -17 13 8 13 -1 0 -26 -6 -10 -8 -19 -5 -19 2 0 23 36 45 80 22 44 45
80 51 80 5 0 8 4 5 9 -3 5 2 15 10 22 9 8 37 43 61 79 25 36 80 115 123 175
44 61 98 147 122 192 24 46 46 83 51 83 12 0 8 -44 -7 -65 -7 -11 -14 -24 -14
-28 -1 -4 -11 -20 -23 -35 -11 -15 -58 -83 -103 -152 -130 -197 -440 -656
-587 -870 -74 -107 -182 -265 -239 -351 -58 -86 -108 -155 -111 -153 -3 2 -6
-2 -6 -9 0 -7 -53 -92 -117 -190 -65 -98 -116 -180 -114 -182 5 -6 166 222
377 535 95 140 218 320 273 400 55 80 144 211 199 293 55 81 102 147 105 147
6 0 -1 -13 -28 -52 -21 -30 -23 -42 -5 -32 7 4 9 3 4 -2 -5 -5 -14 -9 -19 -9
-6 0 -13 -6 -16 -14 -3 -9 0 -11 9 -6 8 5 11 4 6 -1 -5 -5 -14 -9 -19 -9 -6 0
-13 -6 -16 -14 -3 -8 0 -11 7 -7 17 11 14 4 -14 -35 -14 -19 -31 -34 -37 -34
-6 0 -13 -6 -16 -14 -3 -9 0 -11 9 -6 8 5 11 4 6 -1 -5 -5 -14 -9 -20 -9 -7 0
-11 -8 -11 -18 1 -9 -2 -15 -6 -12 -7 4 -121 -155 -322 -450 -115 -169 -316
-471 -329 -495 -15 -28 -22 -121 -7 -99 24 36 30 51 18 44 -9 -6 -9 -2 0 15 6
12 14 19 17 16 4 -3 13 0 22 7 14 10 14 10 4 -4 -7 -9 -10 -19 -6 -22 3 -4 2
-7 -4 -7 -6 0 -13 -8 -16 -17 -2 -10 -8 -27 -13 -37 -6 -15 -4 -17 7 -11 13 9
3 -10 -38 -70 -28 -41 -10 -38 27 5 l40 45 -25 -49 c-14 -27 -25 -57 -25 -67
0 -9 -11 -24 -25 -33 -14 -9 -52 -51 -86 -94 -33 -42 -74 -94 -92 -115 -17
-22 -37 -48 -45 -58 -13 -19 1 -19 717 -19 l731 0 0 1350 0 1350 -269 0 -269
0 -33 -57z"/>
<path d="M47240 2685 c0 -8 6 -15 13 -15 6 -1 -2 -7 -20 -15 -25 -11 -63 -58
-63 -78 0 -12 41 -13 69 -1 29 12 31 12 31 -6 0 -11 -21 -59 -47 -107 -25 -49
-56 -107 -68 -130 -12 -23 -28 -50 -36 -59 -10 -13 -11 -18 -2 -21 8 -3 4 -18
-12 -50 -18 -32 -22 -50 -15 -62 6 -12 4 -26 -4 -42 -11 -22 -11 -25 7 -26 10
-1 22 -5 25 -8 4 -3 -10 -39 -31 -79 -32 -63 -55 -136 -41 -136 2 0 17 30 34
67 17 37 49 91 72 120 39 52 42 53 60 36 11 -10 17 -25 14 -36 -3 -14 0 -17
12 -13 15 5 15 4 2 -7 -8 -6 -16 -19 -18 -27 -2 -8 -11 -23 -19 -32 -10 -11
-11 -18 -5 -18 6 0 16 9 22 21 7 11 14 18 17 16 2 -3 -1 -16 -8 -29 -12 -22
-11 -23 8 -5 24 21 43 22 43 2 0 -20 13 -19 52 5 43 26 56 25 54 -2 -1 -13
-11 -28 -26 -35 -26 -13 -35 -40 -12 -35 14 3 12 -4 -18 -48 -25 -37 -104
-189 -86 -165 8 11 23 29 32 40 15 19 15 18 0 -7 -9 -15 -16 -35 -16 -43 0 -9
-12 -36 -26 -61 -14 -24 -24 -44 -21 -44 3 0 20 26 38 58 18 31 54 86 79 120
25 35 52 74 59 85 8 12 33 45 56 72 23 28 59 75 80 105 21 30 59 73 83 95 l44
40 -53 -77 c-30 -42 -88 -120 -129 -175 -41 -54 -81 -111 -88 -128 -8 -16 -25
-52 -38 -78 -14 -26 -21 -53 -18 -59 4 -7 3 -8 -4 -4 -13 8 -46 -49 -39 -67 2
-7 0 -20 -5 -29 -5 -10 -6 -18 -3 -18 2 0 23 36 45 80 22 44 44 80 48 80 4 0
12 9 17 19 6 11 37 57 70 102 144 196 199 279 238 357 23 45 44 82 48 82 14 0
16 -40 3 -57 -7 -10 -14 -24 -14 -32 0 -8 -6 -19 -14 -25 -8 -6 -125 -177
-262 -381 -136 -203 -329 -489 -429 -635 -100 -146 -221 -323 -269 -395 -48
-71 -92 -129 -97 -127 -6 1 -8 -2 -4 -7 3 -6 -49 -92 -115 -192 -67 -99 -119
-183 -117 -186 6 -6 147 193 376 532 100 149 232 342 292 430 61 88 149 217
196 287 48 71 88 126 91 123 3 -2 0 -11 -7 -18 -6 -8 -9 -21 -6 -29 6 -15 -12
-36 -30 -36 -5 0 -11 -6 -14 -13 -2 -8 1 -9 10 -4 8 5 11 4 6 -1 -5 -5 -14 -9
-20 -9 -5 0 -12 -6 -15 -14 -3 -9 0 -11 9 -6 8 5 11 4 6 -1 -5 -5 -14 -9 -20
-9 -5 0 -12 -6 -15 -14 -3 -9 0 -11 8 -6 7 4 1 -10 -14 -31 -14 -21 -30 -39
-35 -39 -12 0 -66 -75 -302 -420 -255 -372 -351 -516 -427 -645 l-14 -25 21
25 c20 24 27 19 22 -19 -2 -7 3 -10 9 -6 6 4 9 13 6 21 -3 8 0 13 6 11 6 -1
13 4 16 12 3 9 0 11 -9 6 -8 -5 -11 -4 -6 1 5 5 14 9 20 9 7 0 12 7 11 16 -1
9 4 16 11 16 14 0 10 -17 -10 -52 -7 -11 -24 -42 -39 -70 l-28 -50 27 30 26
30 -26 -43 c-15 -24 -24 -46 -22 -48 3 -3 22 14 42 38 36 41 37 41 18 8 -11
-19 -24 -48 -27 -65 -4 -16 -24 -44 -44 -62 l-37 -32 758 -1 757 0 0 1350 0
1350 -380 0 c-331 0 -380 -2 -380 -15z"/>
<path d="M51794 2643 c-8 -32 -18 -66 -20 -75 -3 -10 -1 -18 4 -18 5 0 12 -9
15 -20 3 -14 10 -18 22 -14 11 5 18 0 22 -15 3 -11 9 -21 14 -21 19 0 8 -18
-15 -24 -24 -6 -70 -69 -59 -80 10 -9 53 -7 73 4 12 6 21 7 25 0 6 -10 -70
-168 -112 -231 -14 -21 -26 -49 -27 -62 0 -14 -6 -23 -12 -20 -6 2 -11 -3 -11
-11 0 -8 4 -13 9 -10 4 3 3 -6 -3 -20 -7 -14 -15 -24 -18 -22 -3 2 -7 -11 -8
-30 -2 -20 2 -34 8 -34 6 0 3 -14 -8 -33 l-20 -33 25 -2 c14 -1 27 -3 28 -5 2
-2 -15 -38 -36 -81 -22 -44 -40 -91 -39 -105 0 -21 5 -16 25 28 26 58 110 181
123 181 18 0 33 -31 29 -59 -3 -20 -1 -28 6 -23 6 3 -6 -17 -27 -46 -20 -29
-37 -55 -37 -58 0 -9 24 18 45 49 21 32 32 29 15 -5 -9 -19 -9 -20 2 -7 19 23
48 31 48 14 0 -19 31 -19 56 0 24 18 50 19 57 1 6 -15 -22 -46 -40 -46 -6 0
-13 -7 -17 -15 -3 -9 0 -15 9 -15 21 0 19 -8 -10 -46 -14 -18 -25 -36 -25 -40
0 -3 -16 -33 -36 -66 -20 -32 -34 -61 -32 -64 3 -2 22 23 42 56 21 33 39 60
42 60 6 0 -1 -13 -26 -50 -15 -21 -52 -104 -77 -170 -3 -8 17 22 43 67 27 46
78 121 114 169 36 47 92 123 126 168 33 46 79 100 103 121 l43 39 -33 -49
c-18 -28 -37 -54 -41 -60 -18 -23 -64 -84 -83 -109 -11 -16 -36 -49 -55 -75
-39 -52 -60 -86 -60 -100 0 -5 -18 -40 -40 -77 -22 -38 -38 -75 -35 -82 3 -7
1 -11 -4 -8 -12 8 -22 -20 -14 -41 4 -11 3 -14 -5 -9 -8 5 -10 1 -5 -10 5 -12
16 2 42 55 20 40 40 68 44 64 5 -4 5 0 2 8 -3 9 4 26 17 40 13 14 36 45 53 70
16 24 51 71 76 104 68 88 185 271 206 321 18 43 43 60 43 29 0 -25 -22 -61
-166 -276 -285 -423 -314 -467 -314 -477 0 -6 -4 -12 -9 -14 -7 -3 -378 -539
-543 -785 -30 -46 -58 -80 -63 -75 -4 4 -5 2 -2 -5 4 -6 -44 -89 -107 -184
-63 -95 -113 -175 -111 -178 3 -2 7 -2 9 0 8 8 136 195 311 454 97 143 226
332 287 420 60 88 157 231 216 318 58 86 107 155 110 152 3 -2 0 -11 -7 -18
-6 -8 -9 -21 -5 -30 5 -14 -11 -32 -30 -32 -5 0 -11 -6 -14 -14 -3 -9 0 -11 9
-6 8 5 11 4 6 -1 -5 -5 -14 -9 -20 -9 -5 0 -12 -6 -15 -14 -3 -9 0 -11 8 -6 9
6 11 4 5 -6 -24 -41 -47 -68 -57 -66 -6 1 -13 -4 -16 -12 -3 -9 0 -11 9 -6 8
5 11 4 6 -1 -5 -5 -12 -9 -17 -9 -10 0 -218 -297 -465 -663 -152 -226 -197
-294 -259 -397 l-18 -30 21 25 c11 14 21 29 21 34 0 4 6 6 14 3 8 -3 17 -3 20
1 7 7 36 12 36 7 0 -2 -11 -24 -24 -49 -26 -49 -25 -57 2 -28 10 9 14 13 10 8
-5 -6 -8 -14 -8 -18 0 -4 362 -8 805 -8 l805 0 0 1350 0 1350 -495 0 -494 0
-17 -57z"/>
<path d="M56490 2678 c0 -13 -12 -61 -26 -108 -32 -107 -38 -148 -25 -182 7
-19 15 -26 26 -22 11 5 18 0 22 -15 3 -11 9 -21 14 -21 19 0 8 -18 -15 -24
-28 -7 -71 -60 -61 -76 8 -13 62 -13 70 0 10 17 25 11 25 -10 0 -18 -48 -115
-124 -249 -22 -38 -30 -61 -22 -58 10 4 13 1 9 -8 -3 -8 -10 -12 -16 -8 -5 3
-7 2 -4 -4 4 -6 -2 -27 -13 -48 -14 -28 -17 -42 -9 -51 8 -10 7 -21 -3 -42
-13 -26 -13 -28 5 -29 33 -3 32 -11 -3 -81 -42 -82 -50 -106 -40 -122 5 -8 12
1 20 26 14 42 46 96 94 160 29 38 32 40 49 23 19 -18 19 -68 0 -104 -8 -15 -8
-23 2 -32 13 -12 25 -7 25 9 0 5 -4 6 -10 3 -5 -3 -10 -2 -10 4 0 5 5 13 10
16 6 3 10 1 10 -6 0 -6 8 -9 20 -6 13 3 20 0 20 -9 0 -18 30 -17 54 1 22 17
56 20 56 6 0 -23 -15 -43 -36 -52 -27 -10 -32 -26 -9 -31 13 -2 11 -9 -8 -38
-13 -19 -36 -57 -50 -83 -15 -26 -34 -59 -43 -72 -9 -14 -12 -25 -7 -25 4 0
16 15 26 33 10 17 27 43 38 57 16 20 15 16 -5 -25 -89 -179 -97 -206 -28 -90
26 44 81 124 122 178 41 54 98 130 126 169 27 39 68 84 90 101 33 26 35 27 17
6 -13 -14 -23 -28 -23 -32 0 -4 -35 -52 -77 -108 -98 -127 -134 -179 -126
-179 3 0 -1 -8 -9 -17 -9 -10 -19 -29 -23 -42 -4 -13 -23 -51 -43 -85 -20 -33
-37 -77 -39 -96 -2 -32 1 -29 35 35 33 63 64 108 167 249 101 136 162 229 207
312 49 92 66 115 55 74 -3 -11 -1 -18 4 -14 29 18 -1 -32 -157 -263 -66 -98
-203 -302 -305 -453 -102 -151 -224 -331 -272 -400 -47 -69 -144 -211 -216
-316 -71 -106 -132 -190 -134 -188 -2 2 -4 -2 -4 -9 0 -6 -27 -53 -61 -104
-34 -50 -62 -94 -62 -97 0 -25 34 18 141 176 185 276 304 451 389 573 42 61
129 188 193 283 64 95 117 170 117 165 0 -4 -23 -42 -50 -83 -49 -74 -60 -97
-39 -84 6 3 -1 -12 -16 -35 -15 -22 -31 -38 -35 -36 -5 3 -46 -49 -92 -115
-46 -67 -106 -154 -134 -194 -98 -139 -425 -626 -430 -641 -5 -13 100 -15 880
-15 l886 0 0 1350 0 1350 -555 0 -555 0 0 -22z"/>
<path d="M61180 2690 c0 -6 4 -10 9 -10 5 0 8 -11 7 -25 0 -14 -7 -25 -15 -25
-9 0 -10 -4 -3 -12 13 -17 1 -92 -31 -194 -33 -108 -39 -134 -28 -134 5 0 11
-9 14 -20 3 -14 10 -18 22 -14 11 5 18 0 22 -15 3 -11 9 -21 14 -21 19 0 8
-18 -15 -24 -24 -6 -70 -69 -59 -80 10 -9 53 -7 73 4 12 6 21 7 25 0 6 -10
-70 -168 -112 -231 -14 -21 -26 -49 -27 -62 0 -14 -6 -23 -12 -20 -6 2 -11 -3
-11 -11 0 -8 4 -13 9 -10 4 3 3 -6 -3 -20 -7 -14 -15 -24 -18 -22 -3 2 -7 -11
-8 -30 -2 -20 2 -34 8 -34 6 0 3 -14 -8 -33 l-20 -33 25 -2 c14 -1 27 -3 28
-5 2 -2 -15 -38 -36 -81 -22 -44 -40 -91 -39 -105 0 -21 5 -16 25 28 26 58
110 181 123 181 18 0 33 -31 29 -59 -3 -20 -1 -28 6 -23 6 3 -6 -17 -27 -46
-20 -29 -37 -55 -37 -58 0 -9 24 18 45 49 21 32 32 29 15 -5 -9 -19 -9 -20 2
-7 19 23 48 31 48 14 0 -19 31 -19 56 0 24 18 50 19 57 1 6 -15 -22 -46 -40
-46 -6 0 -13 -7 -17 -15 -3 -9 0 -15 9 -15 21 0 18 -10 -15 -54 -17 -22 -30
-43 -30 -48 0 -4 -14 -30 -31 -58 -17 -28 -29 -53 -27 -56 3 -2 24 27 47 65
24 39 49 75 58 82 8 7 -3 -14 -25 -47 -33 -49 -69 -124 -99 -204 -3 -8 15 20
41 64 25 43 57 93 71 111 14 19 25 36 25 38 0 3 9 16 19 29 11 12 33 39 49 58
16 19 54 69 84 111 29 41 73 93 97 114 l43 39 -33 -49 c-18 -28 -37 -54 -41
-60 -20 -24 -65 -84 -83 -110 -11 -15 -39 -51 -62 -80 -23 -29 -45 -65 -49
-80 -4 -15 -24 -57 -46 -94 -21 -36 -36 -72 -33 -79 3 -7 1 -11 -4 -8 -12 8
-22 -20 -14 -41 4 -11 3 -14 -5 -9 -8 5 -10 1 -5 -10 5 -12 16 2 42 55 20 40
40 68 44 64 5 -4 5 0 2 8 -3 9 4 26 17 40 13 14 36 45 53 70 16 24 51 71 76
104 68 88 185 271 206 321 18 43 43 60 43 29 0 -30 -7 -40 -374 -585 -54 -80
-101 -152 -104 -160 -3 -8 -9 -17 -12 -20 -7 -5 -424 -612 -542 -787 -30 -46
-58 -80 -63 -75 -4 4 -5 2 -2 -4 4 -6 -7 -32 -23 -58 -17 -27 -24 -46 -17 -46
6 0 81 103 165 228 85 125 203 299 264 387 60 88 157 231 216 318 58 86 107
155 110 152 3 -2 0 -11 -7 -18 -6 -8 -9 -21 -5 -30 5 -14 -11 -32 -30 -32 -5
0 -11 -6 -14 -14 -3 -9 0 -11 9 -6 8 5 11 4 6 -1 -5 -5 -14 -9 -19 -9 -6 0
-13 -6 -16 -14 -3 -9 0 -11 8 -6 9 6 11 4 5 -6 -24 -41 -47 -68 -57 -66 -6 1
-13 -4 -16 -12 -3 -9 0 -11 9 -6 8 5 11 4 6 -1 -5 -5 -12 -9 -17 -9 -11 0
-527 -744 -584 -843 -6 -10 175 -12 901 -10 861 3 908 4 905 21 -2 9 4 20 13
23 8 3 15 10 15 16 0 5 -5 6 -11 2 -18 -11 1 39 20 53 14 10 14 11 -4 10 -11
-1 -23 -11 -27 -22 -4 -11 -6 153 -5 365 2 345 4 389 20 419 9 19 17 42 17 51
0 9 7 25 15 36 8 10 15 25 15 32 0 8 7 29 16 48 9 19 14 45 12 59 -3 14 -1 25
3 25 5 0 3 12 -3 26 -7 15 -14 21 -16 15 -2 -6 -8 -11 -13 -11 -4 0 -5 10 0
23 5 12 14 22 20 22 16 0 31 25 30 50 -1 17 -2 17 -6 3 -2 -10 -9 -18 -14 -18
-13 0 -11 13 4 35 10 12 16 14 21 7 4 -7 12 -12 18 -12 6 0 3 9 -7 20 -18 20
-17 32 12 110 4 10 2 12 -4 5 -5 -5 -29 -64 -53 -130 -23 -66 -45 -122 -49
-125 -3 -3 -6 -9 -7 -15 -1 -24 -17 -65 -25 -65 -5 0 -9 342 -9 810 l0 810
-610 0 c-387 0 -610 -4 -610 -10z"/>
<path d="M65886 2689 c3 -6 12 -8 20 -5 19 7 18 -8 -1 -24 -17 -14 -20 -30 -5
-30 6 0 10 7 10 15 0 8 5 15 10 15 13 0 13 -6 0 -31 -6 -10 -7 -19 -3 -19 5 0
10 -11 11 -25 1 -19 -2 -23 -16 -18 -16 6 -16 5 1 -14 9 -11 15 -22 12 -24 -2
-3 -7 -23 -11 -45 -3 -21 -17 -73 -30 -114 -34 -107 -31 -180 8 -180 11 0 22
-9 25 -20 3 -11 10 -20 17 -20 6 -1 -3 -7 -21 -15 -25 -11 -63 -58 -63 -78 0
-12 41 -13 69 -1 29 12 31 12 31 -6 0 -11 -21 -59 -47 -107 -25 -49 -56 -107
-68 -130 -12 -23 -28 -50 -36 -59 -10 -13 -11 -18 -2 -21 8 -3 4 -18 -12 -50
-18 -32 -22 -50 -15 -62 6 -12 4 -26 -4 -42 -11 -22 -11 -25 7 -26 10 -1 22
-5 25 -8 4 -3 -10 -39 -31 -79 -32 -63 -55 -136 -41 -136 2 0 17 30 34 67 17
37 49 91 72 120 39 52 42 53 60 36 11 -10 17 -25 14 -36 -3 -14 0 -17 12 -13
15 5 15 4 2 -7 -8 -6 -16 -19 -18 -27 -2 -8 -11 -23 -19 -32 -10 -11 -11 -18
-5 -18 6 0 16 9 22 21 7 11 14 18 17 16 2 -3 -1 -16 -8 -29 -12 -22 -11 -23 8
-5 24 21 43 22 43 2 0 -20 13 -19 52 5 43 26 56 25 54 -2 -1 -13 -11 -28 -26
-35 -26 -13 -35 -40 -12 -35 14 3 12 -4 -18 -48 -38 -57 -103 -184 -87 -171
27 22 22 -11 -12 -72 -16 -28 -35 -71 -42 -95 -7 -23 -16 -42 -21 -42 -5 0 -8
-6 -7 -13 1 -6 -1 -19 -4 -27 -4 -8 -21 -53 -37 -100 -17 -47 -28 -71 -25 -55
5 27 4 28 -7 10 -16 -25 -43 -33 -34 -10 3 9 6 23 6 31 0 9 3 13 8 11 4 -3 7
5 8 16 0 12 4 36 7 52 4 17 -1 9 -10 -17 -9 -27 -21 -48 -25 -48 -5 0 -6 10
-2 23 5 12 8 32 7 45 0 12 3 22 8 22 4 0 6 7 3 15 -4 9 -1 15 7 15 10 0 10 3
1 12 -15 15 -16 31 0 22 8 -5 9 -2 5 10 -4 10 -7 21 -7 24 -1 4 -41 -110 -89
-253 -49 -143 -103 -300 -119 -349 -25 -71 -104 -216 -118 -216 -1 0 1 12 6
27 5 16 41 129 81 253 39 124 74 232 77 240 3 10 2 12 -5 5 -6 -5 -22 -46 -37
-90 -131 -396 -166 -496 -181 -521 -9 -16 -14 -22 -11 -13 15 53 51 165 101
319 99 302 113 355 100 367 -9 8 -17 -7 -35 -60 -22 -68 -23 -70 -36 -46 -15
27 -18 43 -6 36 4 -3 7 5 8 16 0 12 4 36 8 52 6 27 5 26 -8 -5 -8 -19 -17 -44
-20 -54 -4 -10 -9 -17 -11 -14 -3 3 20 81 50 173 30 93 53 170 52 172 -5 4
-43 -82 -77 -173 -38 -104 -38 -82 0 31 17 49 30 97 30 107 0 60 -49 -32 -115
-219 -26 -73 -52 -130 -57 -127 -5 3 -5 11 1 18 6 7 8 16 4 19 -3 4 -1 7 6 7
7 0 11 7 8 15 -4 8 -2 17 3 20 5 3 7 12 3 20 -3 8 0 15 6 15 6 0 8 7 4 17 -5
12 -3 14 7 8 10 -6 12 -4 7 8 -3 10 -2 17 4 17 6 0 8 9 4 20 -4 12 -2 20 5 20
6 0 9 4 6 9 -3 5 3 35 14 66 24 70 24 76 5 69 -8 -4 -12 -10 -9 -15 3 -5 0 -9
-6 -9 -7 0 -10 -7 -6 -15 3 -8 1 -15 -5 -15 -6 0 -9 -7 -5 -15 3 -8 1 -15 -5
-15 -6 0 -8 -7 -5 -16 4 -10 2 -13 -6 -8 -7 5 -9 0 -6 -14 4 -14 2 -20 -4 -16
-6 4 -8 -2 -4 -17 6 -19 5 -21 -3 -8 -8 12 -5 32 9 74 11 32 20 63 20 69 0 19
-27 -28 -40 -69 -13 -40 -30 -68 -30 -49 0 6 9 36 19 67 11 32 17 57 13 57 -4
0 -25 -51 -46 -112 -40 -117 -141 -408 -202 -586 -59 -170 -50 -108 14 94 68
213 79 263 59 245 -8 -6 -17 -8 -20 -4 -4 3 -7 1 -7 -5 0 -7 -7 -12 -16 -12
-8 0 -13 4 -9 9 3 6 7 29 10 53 4 42 4 43 -7 11 -6 -18 -14 -33 -19 -33 -9 0
6 57 58 213 19 60 33 110 31 112 -2 3 -40 -106 -84 -240 -43 -135 -82 -245
-85 -245 -4 0 13 62 36 138 23 75 52 171 63 212 11 41 24 84 28 94 5 13 4 17
-3 13 -8 -5 -9 6 -6 34 4 29 2 44 -8 50 -22 14 -24 12 -43 -42 -11 -29 -22
-46 -26 -40 -3 7 -15 -17 -25 -51 -17 -59 -55 -114 -69 -101 -3 4 -6 4 -6 2 0
-2 -14 -42 -30 -89 -17 -47 -27 -69 -24 -50 6 34 5 34 -11 15 l-16 -20 5 20
c3 11 8 34 11 50 4 23 2 21 -10 -10 -9 -22 -14 -51 -11 -65 3 -14 3 -19 0 -12
-12 26 -22 9 -50 -78 -20 -67 -30 -86 -37 -75 -7 14 -11 14 -25 3 -15 -12 -16
-11 -4 4 8 9 11 22 7 28 -3 5 -1 10 5 10 6 0 8 5 5 11 -4 6 0 29 8 52 8 23 18
54 21 69 3 14 8 34 11 45 3 10 -3 -1 -14 -24 -11 -24 -23 -58 -27 -78 -8 -43
-21 -46 -21 -5 0 17 4 30 9 30 5 0 4 9 -2 20 -9 16 -8 18 5 14 8 -4 15 -1 15
5 0 6 -4 11 -10 11 -5 0 -10 4 -10 10 0 5 6 7 14 4 19 -7 28 35 10 53 -8 8
-14 11 -14 6 0 -5 5 -14 11 -20 8 -8 8 -13 0 -17 -6 -4 -11 -1 -12 6 0 15
-193 -537 -234 -669 l-6 -23 230 0 c208 0 231 2 241 17 11 17 11 17 6 1 -5
-16 6 -18 132 -17 91 1 139 5 144 13 6 8 8 8 8 -1 0 -10 240 -13 1168 -12 642
1 1157 4 1144 6 -14 3 -20 9 -16 16 4 7 4 9 -1 5 -4 -4 -14 -3 -22 3 -14 13
-18 33 -4 25 5 -4 6 9 1 29 -5 21 -4 38 2 41 6 4 5 10 -3 15 -10 6 -11 9 -1 9
6 0 12 6 12 14 0 8 5 16 12 18 6 2 11 19 10 36 0 18 4 30 9 27 5 -4 9 1 9 10
0 9 3 14 8 11 4 -2 7 13 7 34 0 21 3 36 7 34 5 -3 8 4 8 16 0 12 4 18 10 15 6
-3 7 1 4 9 -3 9 -1 16 5 16 12 0 3 31 -13 43 -6 5 0 5 12 2 21 -6 23 -5 13 14
-10 17 -9 20 4 15 13 -5 14 -2 5 21 -6 15 -8 30 -5 33 3 3 5 2 5 -3 0 -4 6 -2
14 5 8 6 12 18 9 26 -3 8 0 14 6 14 7 0 8 8 1 25 -6 15 -6 26 0 30 6 4 10 22
10 41 0 21 4 33 10 29 6 -3 10 -1 10 6 0 8 5 7 17 -2 15 -13 15 -12 0 11 -10
16 -13 30 -8 39 5 8 7 21 4 30 -3 10 4 7 16 -8 16 -18 21 -20 21 -7 0 9 -4 16
-9 16 -14 0 -22 29 -15 56 5 20 9 22 20 13 12 -10 13 -8 4 16 -9 24 -9 26 4
16 13 -11 13 -6 1 39 -12 44 -12 50 1 39 11 -9 15 -8 20 5 3 9 10 13 15 10 12
-7 11 3 -2 29 -7 12 -8 18 -3 14 4 -4 16 20 26 54 16 59 16 63 0 75 -26 20
-30 17 -43 -28 -7 -24 -21 -69 -31 -102 -11 -32 -16 -66 -13 -75 3 -8 3 -12
-1 -8 -4 4 -13 -7 -19 -25 -6 -18 -17 -32 -24 -30 -9 2 -11 -6 -6 -28 7 -30
-12 -110 -41 -178 -8 -18 -14 -39 -14 -47 0 -8 -5 -26 -12 -40 -8 -19 -14 -22
-20 -13 -5 8 -6 -1 -3 -22 6 -33 5 -35 -20 -35 -20 0 -25 4 -21 18 2 9 0 17
-5 17 -5 0 -9 -10 -9 -22 l0 -22 -22 22 c-15 15 -19 25 -12 30 6 4 14 14 17
22 4 11 6 11 6 -4 1 -13 6 -16 18 -12 9 4 20 1 26 -6 5 -8 6 -2 3 17 -4 17 -3
26 1 20 16 -20 33 -14 39 13 3 15 10 40 15 56 5 16 7 31 5 33 -2 2 -12 -19
-21 -48 -15 -43 -20 -50 -29 -37 -6 8 -16 13 -21 11 -6 -2 -16 6 -23 17 -14
23 -5 27 12 5 8 -10 16 -12 26 -5 13 8 13 13 -2 41 -19 32 -25 66 -8 39 6 -9
10 -10 10 -3 0 6 -4 14 -9 18 -11 6 -8 51 3 62 4 4 11 1 16 -7 6 -9 10 -10 10
-3 0 13 -27 43 -39 43 -3 0 -8 -12 -9 -27 -1 -15 -7 -32 -13 -38 -7 -7 -8 -5
-4 8 5 12 2 17 -9 17 -9 0 -16 -5 -16 -11 0 -5 -4 -8 -9 -4 -5 3 -12 1 -16 -5
-3 -5 -1 -10 4 -10 6 0 11 -5 11 -11 0 -5 -5 -7 -12 -3 -8 5 -9 2 -5 -9 3 -10
2 -17 -4 -17 -5 0 -7 -12 -3 -28 4 -21 3 -24 -5 -12 -10 13 -11 13 -11 0 0
-12 -2 -12 -9 -2 -6 10 -10 7 -15 -14 -7 -27 8 -49 26 -38 4 3 8 1 8 -4 0 -14
-40 -22 -41 -9 0 7 -4 3 -9 -8 -12 -27 -12 -43 0 -25 8 12 10 12 10 -5 1 -17
3 -17 12 5 l11 25 4 -23 c3 -12 9 -20 14 -16 5 3 7 10 4 15 -4 5 -1 9 5 9 7 0
9 -7 6 -16 -3 -9 -6 -22 -6 -30 0 -8 -5 -14 -11 -14 -5 0 -7 5 -4 10 3 6 1 10
-4 10 -6 0 -11 -8 -11 -17 0 -15 -2 -14 -16 3 -15 19 -15 18 -11 -4 3 -12 1
-20 -4 -16 -5 3 -9 -1 -9 -8 0 -10 -2 -10 -9 1 -6 9 -8 -5 -6 -38 1 -28 9 -59
17 -69 15 -17 35 -62 22 -49 -4 4 -14 1 -23 -5 -13 -10 -14 -10 -3 2 18 21 16
46 -2 31 -12 -10 -13 -9 -9 7 2 11 1 22 -4 25 -10 6 -48 -101 -40 -110 3 -2 8
9 12 26 7 34 28 32 23 -2 -1 -12 1 -28 5 -35 10 -14 0 -52 -13 -52 -5 0 -7 -6
-4 -13 3 -8 -2 -14 -10 -14 -8 0 -12 5 -9 10 3 6 1 7 -5 3 -7 -4 -9 -17 -6
-30 3 -14 -1 -29 -10 -38 -8 -9 -13 -18 -9 -21 3 -3 -4 -5 -16 -4 -18 1 -21 6
-17 27 6 25 -25 -34 -38 -75 -6 -16 -9 -17 -16 -5 -6 8 -10 22 -10 30 0 12 2
12 9 2 6 -10 10 -8 14 9 4 13 4 25 2 28 -3 2 -5 -1 -5 -7 0 -7 -6 -12 -13 -12
-8 0 -20 -19 -27 -42 -11 -40 -24 -57 -42 -58 -5 0 -8 97 -8 215 0 157 3 215
12 215 6 0 8 3 5 7 -4 3 -2 11 3 18 5 6 12 29 15 51 2 21 9 40 14 42 6 2 7 10
4 18 -3 8 0 14 7 14 6 0 9 4 6 9 -4 5 -1 22 6 38 6 15 12 30 13 33 0 3 6 15
13 27 7 12 11 26 11 30 -1 4 1 15 4 23 4 8 24 67 46 130 25 75 43 114 51 112
10 -2 11 0 2 11 -9 10 -9 16 0 25 9 9 9 12 -2 12 -10 0 -10 4 3 18 8 9 16 22
16 27 3 27 14 45 24 38 7 -4 6 1 -2 10 -12 15 -9 21 11 18 4 0 5 6 2 14 -4 8
-2 15 4 15 6 0 8 10 4 22 -3 13 -1 19 5 15 7 -5 9 0 6 11 -2 11 4 45 13 78 10
32 19 70 19 84 1 36 36 110 49 103 6 -3 8 -3 4 1 -4 5 5 40 19 78 19 54 22 72
12 78 -7 5 -9 15 -4 26 8 18 8 18 13 -1 3 -14 11 0 28 45 17 49 20 66 11 73
-9 7 -9 10 1 14 6 2 10 9 6 14 -3 5 0 9 6 9 6 0 9 4 5 9 -3 5 -1 12 4 16 6 3
7 13 4 22 -5 13 -2 15 12 9 11 -4 16 -4 13 0 -4 3 2 24 12 45 11 21 20 49 20
62 0 14 7 30 15 37 8 7 15 22 15 34 0 12 7 31 15 42 8 10 15 28 15 39 0 12 4
25 9 30 5 6 14 33 19 60 9 41 8 52 -3 61 -8 6 -11 15 -7 20 4 4 -1 2 -10 -5
-20 -15 -23 -9 -7 20 5 11 14 17 19 14 5 -3 12 0 16 6 4 8 3 9 -4 5 -18 -11
-15 37 4 60 8 10 12 12 8 4 -6 -13 -5 -13 7 -1 10 9 11 15 3 18 -7 2 -9 14 -6
26 13 54 -12 0 -48 -102 -41 -118 -61 -156 -76 -143 -4 4 -3 0 4 -10 9 -11 10
-18 2 -23 -6 -3 -8 -11 -5 -16 4 -5 -1 -9 -9 -9 -19 0 -21 -16 -3 -23 10 -4
10 -6 0 -6 -14 -1 -18 -31 -4 -31 4 0 18 28 30 63 25 69 50 127 56 127 2 0 1
-9 -2 -20 -4 -14 0 -20 11 -20 9 0 16 -5 16 -11 0 -6 -7 -8 -17 -5 -17 7 -33
-9 -33 -32 0 -7 5 -10 12 -6 7 4 8 3 4 -5 -4 -6 -13 -8 -19 -4 -7 4 -6 -1 2
-11 13 -15 12 -18 -5 -22 -14 -4 -24 -21 -33 -52 -9 -32 -15 -42 -20 -31 -5
14 -8 15 -19 3 -7 -8 -10 -14 -6 -14 3 0 1 -6 -5 -13 -6 -8 -8 -17 -5 -20 3
-3 2 -12 -2 -19 -5 -7 -10 -22 -12 -33 -3 -20 -3 -20 12 0 9 11 16 26 16 33 0
7 4 11 9 8 11 -7 2 -46 -10 -46 -5 0 -9 -10 -9 -22 0 -11 -11 -44 -24 -72 -26
-56 -66 -182 -66 -209 0 -9 -5 -17 -12 -17 -9 0 -9 -3 0 -12 7 -7 12 -16 12
-21 0 -5 -9 1 -20 14 -17 21 -19 22 -20 6 0 -11 -4 -15 -12 -11 -6 4 -8 3 -4
-4 3 -6 2 -13 -4 -17 -5 -3 -10 -1 -10 6 0 7 -3 9 -6 6 -4 -4 -1 -14 7 -23 11
-14 11 -18 1 -21 -6 -3 -10 -8 -7 -13 8 -13 -17 -61 -30 -56 -16 6 -56 -122
-49 -154 4 -18 3 -21 -4 -11 -10 14 -18 1 -27 -51 -4 -23 -4 -23 12 -3 14 18
15 18 9 2 -3 -10 -6 -21 -6 -23 0 -2 -7 -4 -15 -4 -8 0 -15 -4 -15 -9 0 -5 -3
-17 -7 -27 -4 -12 -3 -15 5 -10 7 4 12 2 12 -6 0 -7 -9 -19 -20 -26 -12 -7
-22 -28 -26 -52 -4 -22 -11 -43 -15 -46 -5 -3 -9 -11 -9 -17 0 -7 4 -6 10 3 7
10 8 3 5 -24 -3 -22 -10 -45 -15 -51 -5 -7 -6 -16 -2 -20 4 -5 -2 -5 -12 -1
-15 5 -17 4 -7 -7 11 -14 -16 -122 -53 -211 -13 -31 -14 -42 -4 -54 8 -10 9
-13 1 -9 -7 5 -11 -4 -12 -26 -2 -59 -5 -77 -13 -77 -11 0 -10 13 2 47 10 26
9 27 -5 8 -14 -18 -16 -1 -15 190 0 116 1 580 0 1033 l0 822 -660 0 c-455 0
-659 -4 -654 -11z m391 -1163 c-75 -106 -136 -186 -174 -229 -18 -20 -33 -44
-33 -52 0 -7 -7 -18 -15 -22 -8 -5 -23 -33 -33 -63 -20 -57 -66 -133 -75 -124
-3 3 -17 -28 -31 -68 -14 -40 -24 -61 -21 -45 7 34 -2 35 -16 1 -18 -50 -18
-18 0 43 21 69 63 147 131 241 25 35 52 74 59 85 8 12 34 45 56 72 23 28 56
71 73 96 25 37 119 138 129 139 1 0 -21 -33 -50 -74z m1287 -1057 c-3 -5 0 -9
6 -9 7 0 10 7 7 15 -4 8 -2 17 3 20 5 3 12 -6 16 -20 3 -14 10 -25 15 -25 5 0
9 -7 9 -15 0 -8 -5 -15 -11 -15 -5 0 -7 -4 -4 -10 3 -5 1 -10 -4 -10 -6 0 -11
-6 -11 -13 0 -7 -9 -18 -20 -25 -12 -7 -18 -18 -14 -23 4 -6 1 -15 -6 -19 -7
-4 -13 -20 -15 -36 -2 -16 -8 -41 -14 -56 -11 -29 -5 -62 10 -52 5 3 9 0 9 -6
0 -7 -8 -9 -20 -5 -11 4 -20 3 -19 -2 4 -24 -2 -53 -11 -48 -5 3 -10 1 -10 -6
0 -7 -3 -10 -6 -6 -3 3 1 27 10 53 9 26 14 50 11 52 -4 4 -14 -17 -26 -57 -4
-10 -8 -9 -19 5 -8 10 -10 15 -3 11 6 -4 14 -3 17 2 4 5 2 12 -4 16 -5 3 -10
11 -10 16 0 6 4 8 9 4 5 -3 12 -1 16 5 3 5 1 10 -4 10 -6 0 -11 4 -11 8 0 5 7
9 15 9 8 0 15 -4 15 -9 0 -5 5 -6 11 -2 7 4 7 9 2 13 -6 3 -13 22 -16 41 -5
22 -4 30 2 21 10 -15 41 -8 41 9 0 5 -3 9 -7 9 -19 -3 -33 2 -33 12 0 6 5 7
13 2 21 -13 37 -12 37 3 0 9 -5 12 -11 8 -6 -3 -15 0 -20 7 -12 19 -11 31 2
23 8 -4 9 1 5 17 -3 13 -3 18 0 12 9 -19 32 -16 44 6 12 24 13 44 1 37 -5 -3
-15 1 -22 10 -10 13 -10 17 0 24 9 5 10 10 2 14 -6 4 -11 13 -11 19 1 7 9 1
20 -12 11 -12 17 -27 14 -32z"/>
<path d="M68777 2693 c-2 -5 -12 -32 -21 -60 -10 -29 -22 -53 -27 -53 -6 0 -7
-5 -4 -10 7 -12 -15 -80 -27 -80 -4 0 -5 -7 -2 -15 4 -8 11 -12 17 -8 6 3 7 1
3 -6 -4 -6 -12 -9 -17 -6 -5 4 -9 1 -9 -4 0 -6 -8 -11 -17 -11 -11 0 -14 -3
-7 -8 6 -4 14 -16 17 -26 6 -16 5 -17 -8 -6 -14 12 -14 10 -5 -16 6 -16 8 -26
4 -22 -3 4 -13 0 -21 -8 -13 -12 -13 -17 -2 -32 7 -9 9 -14 5 -10 -14 12 -34
-34 -25 -59 5 -14 3 -25 -6 -33 -8 -7 -13 -17 -12 -23 1 -7 -3 -11 -9 -10 -7
1 -10 -6 -7 -20 3 -16 2 -18 -5 -9 -7 11 -10 9 -15 -7 -3 -12 -1 -21 4 -21 5
0 9 -4 9 -10 0 -5 -7 -10 -15 -10 -8 0 -14 -3 -13 -7 4 -15 -26 -113 -34 -113
-5 0 -6 -4 -3 -10 3 -5 2 -10 -4 -10 -5 0 -11 8 -13 18 -3 14 -5 13 -10 -5 -4
-14 -2 -22 6 -20 14 3 10 -45 -6 -54 -6 -4 -7 -12 -4 -18 4 -6 2 -11 -3 -11
-6 0 -12 10 -12 23 -1 17 -2 18 -6 4 -3 -10 1 -25 9 -34 10 -12 10 -17 1 -20
-7 -2 -9 -11 -6 -19 3 -9 -2 -14 -15 -14 -22 0 -36 -36 -26 -67 4 -12 3 -14
-3 -5 -7 8 -14 -4 -26 -41 -19 -62 -21 -70 -8 -63 5 4 7 -3 4 -15 -4 -13 -8
-17 -13 -9 -6 10 -25 -36 -44 -110 l-7 -25 15 25 c9 14 15 19 16 13 0 -7 -9
-22 -19 -32 -11 -11 -26 -42 -34 -68 -8 -26 -18 -57 -22 -68 -6 -16 -5 -17 4
-5 16 23 13 -2 -8 -62 -10 -29 -34 -105 -55 -168 -32 -103 -147 -454 -271
-832 -25 -76 -45 -142 -45 -147 0 -25 -42 -121 -51 -115 -5 3 -7 11 -3 17 3 7
-2 3 -10 -7 -9 -11 -16 -23 -16 -28 0 -4 55 -8 123 -8 l122 0 33 107 c23 72
37 102 42 92 6 -8 5 -16 -2 -20 -6 -4 -7 -12 -4 -18 4 -6 2 -11 -4 -11 -7 0
-9 -8 -5 -21 5 -16 4 -19 -5 -14 -9 5 -10 1 -5 -15 5 -17 4 -21 -6 -15 -9 6
-11 2 -7 -13 4 -12 2 -22 -3 -22 -4 0 -6 -7 -3 -15 4 -8 1 -15 -5 -15 -6 0
-11 -4 -11 -10 0 -6 65 -10 176 -10 149 0 175 2 171 14 -3 8 -1 16 5 18 6 2
11 18 12 35 0 17 4 29 7 27 4 -2 10 8 13 22 4 15 9 25 11 22 2 -2 -5 -32 -16
-67 -18 -61 -18 -92 1 -61 7 12 11 12 25 0 14 -12 18 -12 26 1 5 8 9 21 9 29
0 13 1 13 10 0 13 -19 13 -8 0 24 -7 19 -6 26 2 26 9 0 9 3 1 11 -9 9 -4 25
16 63 34 62 49 107 56 166 3 25 10 46 15 48 5 2 6 10 3 18 -3 8 3 25 14 37 11
12 23 34 27 49 3 14 9 34 13 44 4 12 3 15 -5 10 -8 -5 -10 -2 -6 8 3 9 10 13
15 10 5 -3 6 2 3 10 -3 9 -1 16 5 16 6 0 18 26 26 58 24 86 57 164 77 184 10
10 18 27 18 39 0 11 4 17 10 14 6 -4 7 1 3 11 -5 14 -10 10 -24 -22 -20 -45
-24 -42 -7 7 6 19 19 39 28 46 10 7 20 22 23 33 7 29 -2 25 -14 -6 -5 -15 -12
-25 -15 -22 -7 7 14 61 29 73 20 17 49 74 42 85 -3 6 -3 16 2 23 4 6 8 14 9
17 0 3 6 17 12 32 6 15 9 35 5 44 -4 10 1 17 15 21 17 4 20 9 12 23 -7 13 -7
21 1 26 6 3 9 15 6 25 -3 10 2 24 9 30 8 7 12 19 9 27 -3 7 -2 18 1 24 9 14
37 -30 28 -45 -5 -8 -4 -9 4 -2 7 6 8 23 4 45 -9 42 -4 83 9 75 5 -4 9 -2 9 4
0 5 -4 11 -9 13 -5 2 -1 28 10 58 11 30 21 66 23 80 4 36 41 111 51 102 4 -4
4 4 0 17 -5 17 -4 21 5 16 9 -5 10 -2 6 12 -8 25 3 55 17 46 6 -4 7 -1 3 6 -5
7 -1 20 8 30 15 17 15 20 1 34 -21 22 -19 30 5 17 16 -9 18 -8 14 5 -4 8 -10
15 -15 15 -5 0 -9 5 -9 11 0 5 5 7 11 3 8 -4 9 1 4 16 -5 16 -4 20 5 15 9 -6
10 -1 5 16 -8 25 -9 32 -7 63 2 20 2 20 18 0 8 -10 13 -13 9 -6 -11 22 4 51
25 47 14 -3 20 2 20 14 0 10 3 21 7 25 11 11 12 36 1 33 -6 -1 -13 4 -16 12
-2 8 -1 11 4 8 5 -3 8 13 7 36 -2 23 1 51 6 62 16 34 31 88 27 92 -2 3 -19
-34 -37 -81 -18 -47 -34 -84 -36 -82 -4 4 1 23 26 104 15 49 -3 30 -24 -25
-20 -55 -40 -82 -30 -42 4 15 2 30 -3 33 -12 7 -60 -87 -64 -124 -2 -14 -7
-28 -12 -31 -5 -4 -8 -18 -8 -33 0 -14 -5 -26 -10 -26 -5 0 -6 -4 -3 -10 3 -5
2 -10 -3 -10 -5 0 -12 11 -14 25 -3 15 -1 22 5 18 6 -4 8 0 4 10 -3 10 -3 17
2 17 11 0 33 54 30 71 -2 8 4 25 13 39 24 37 34 75 17 64 -12 -7 -12 -5 0 9
18 22 6 70 -16 65 -9 -2 -22 -21 -29 -43 -11 -31 -13 -34 -10 -10 3 17 8 39
11 50 5 16 5 17 -4 5 -9 -12 -11 -12 -16 3 -6 15 -9 15 -22 1 -9 -8 -12 -18
-9 -22 4 -3 11 0 15 7 15 23 21 -4 10 -43 -6 -23 -14 -34 -21 -30 -8 5 -9 1
-5 -10 4 -10 3 -15 -4 -11 -5 4 -7 16 -3 27 4 14 2 18 -5 14 -6 -4 -11 0 -11
9 0 11 5 15 15 11 8 -3 15 -1 15 4 0 6 -6 10 -14 10 -10 0 -12 7 -8 23 5 20 4
21 -11 8 -15 -12 -17 -12 -12 2 4 8 2 18 -4 21 -6 4 -8 14 -5 24 2 9 -5 -1
-16 -23 -11 -22 -18 -47 -16 -56 4 -20 -22 -19 -35 2 -6 10 -9 11 -10 2 -3
-23 -11 -46 -44 -123 -13 -30 -35 -86 -49 -125 -13 -38 -27 -78 -31 -87 -8
-20 -26 -25 -21 -5 1 6 1 9 -1 4 -3 -4 -8 -5 -12 -3 -4 3 -8 -8 -8 -24 0 -17
4 -30 9 -30 4 0 7 -11 6 -25 -2 -19 -7 -24 -20 -19 -10 3 -18 1 -18 -4 0 -6 5
-12 12 -14 9 -3 7 -17 -6 -52 -13 -34 -22 -46 -33 -42 -11 4 -13 2 -9 -9 3 -8
1 -15 -5 -15 -6 0 -9 -7 -5 -15 3 -8 1 -15 -5 -15 -6 0 -9 -6 -6 -14 4 -10 0
-12 -16 -8 -12 3 -16 7 -9 10 7 2 9 9 6 14 -4 7 -2 8 4 4 13 -8 15 4 6 28 -3
9 -10 13 -15 10 -5 -3 -6 2 -2 12 5 14 7 14 18 -5 10 -20 11 -19 11 13 0 19
-3 33 -7 30 -4 -2 -10 3 -13 12 -3 8 -2 12 4 9 6 -3 10 0 10 7 0 10 2 10 8 1
5 -8 21 23 42 83 19 52 39 98 44 101 5 3 6 2 3 -4 -3 -5 0 -10 8 -10 19 0 19
13 1 20 -9 4 -13 20 -11 50 1 38 -1 45 -16 44 -10 -1 -15 -5 -13 -9 3 -5 -1
-15 -9 -23 -13 -13 -18 -9 -36 28 -11 23 -20 36 -21 30 0 -7 -4 -13 -9 -13 -5
0 -8 8 -6 18 1 9 8 16 14 14 6 -1 11 8 11 20 0 13 9 36 19 52 11 17 17 34 15
38 -3 5 1 20 10 33 9 13 16 33 16 43 0 10 7 27 15 38 8 10 15 26 15 34 0 8 7
29 16 45 9 18 14 43 10 63 -2 17 -1 32 3 32 5 0 6 16 4 36 -2 19 0 33 4 31 4
-3 9 11 9 32 1 20 0 30 -3 24 -3 -7 -9 -13 -14 -13 -4 0 -6 7 -3 15 6 15 -1
21 -9 8z m-324 -1646 c-3 -4 -8 -5 -13 -2 -10 6 -23 -43 -14 -57 5 -7 2 -8 -6
-3 -10 6 -12 4 -7 -8 3 -9 2 -19 -3 -22 -9 -5 -49 -129 -76 -235 -8 -30 -17
-63 -20 -74 -4 -11 -2 -16 4 -12 5 3 13 -1 16 -10 3 -8 2 -12 -4 -9 -6 3 -10
-2 -11 -12 0 -16 -1 -16 -8 2 -6 16 -10 9 -20 -33 -7 -28 -16 -52 -19 -52 -4
0 -8 -12 -9 -27 0 -15 -6 -29 -12 -31 -5 -2 -7 -10 -4 -18 3 -8 0 -14 -6 -14
-6 0 -8 -7 -5 -15 4 -8 1 -15 -6 -15 -7 0 -10 -7 -6 -15 3 -8 1 -15 -5 -15 -6
0 -9 -7 -5 -15 3 -8 1 -15 -3 -15 -5 0 -12 6 -14 13 -4 8 -6 7 -6 -4 -1 -8 4
-20 11 -27 6 -6 9 -15 5 -18 -3 -4 -11 4 -17 17 -8 20 -1 52 39 176 27 84 44
150 39 147 -6 -4 -8 1 -5 12 3 11 8 29 12 42 4 12 10 20 14 17 5 -2 6 8 4 23
-3 19 -2 23 5 14 7 -11 12 -6 21 19 14 42 14 49 -4 49 -23 0 -18 15 9 30 13 7
26 20 29 29 3 9 8 25 12 36 7 19 7 19 -7 1 -14 -17 -15 -17 -21 -2 -4 9 -3 15
2 12 11 -7 24 41 15 56 -4 7 -3 8 4 4 7 -4 12 -1 12 6 0 10 3 9 11 -2 9 -12
10 -12 5 3 -3 10 -3 30 0 44 5 19 9 22 16 11 7 -9 8 -7 5 10 -3 12 -1 20 4 16
5 -3 9 0 9 5 0 6 8 3 18 -6 11 -10 17 -21 15 -26z"/>
<path d="M70662 2693 c11 -3 15 -10 11 -20 -5 -12 -2 -15 10 -10 23 9 21 -9
-3 -26 -11 -8 -17 -17 -13 -20 11 -12 23 -8 23 8 0 8 5 15 10 15 7 0 7 -7 -1
-21 -6 -13 -7 -24 -2 -28 5 -3 10 -16 10 -28 1 -17 -2 -20 -15 -16 -14 6 -15
4 -4 -9 16 -20 8 -76 -28 -193 -34 -111 -44 -155 -31 -136 7 11 10 9 13 -10 2
-16 11 -25 26 -27 12 -2 22 -10 22 -17 0 -8 7 -18 16 -23 14 -8 12 -10 -9 -16
-28 -7 -71 -59 -64 -79 4 -11 -71 -234 -210 -630 -26 -75 -49 -133 -51 -128
-2 5 24 92 57 192 33 101 63 196 66 212 16 80 16 83 5 64 -6 -9 -15 -15 -21
-12 -5 4 -9 1 -9 -4 0 -6 -7 -11 -16 -11 -10 0 -14 6 -11 14 3 8 8 32 11 53
l6 38 -15 -34 c-9 -18 -18 -31 -20 -29 -4 4 80 282 91 299 3 5 1 9 -5 9 -5 0
-12 -13 -16 -30 -4 -17 -10 -30 -15 -30 -4 0 -6 -10 -2 -22 3 -14 1 -19 -6
-14 -7 4 -10 2 -7 -6 3 -7 -22 -92 -54 -188 -33 -96 -60 -168 -60 -160 -1 9
17 70 39 135 22 65 40 126 40 135 0 8 11 51 25 94 29 93 30 96 9 70 -8 -10
-13 -13 -9 -6 11 21 14 92 4 92 -5 0 -9 -6 -9 -12 0 -10 -3 -9 -9 1 -10 15
-14 10 -31 -43 -8 -24 -15 -34 -20 -26 -5 8 -10 3 -14 -14 -4 -15 -16 -52 -27
-83 -15 -39 -24 -51 -30 -42 -7 11 -9 10 -9 -4 0 -10 -4 -16 -9 -12 -12 7 -25
-31 -15 -46 4 -8 3 -9 -4 -5 -7 4 -16 -9 -23 -34 -7 -22 -15 -36 -19 -30 -4 7
-14 -3 -23 -22 -21 -42 -22 -24 -2 32 8 23 15 48 14 54 0 6 -7 -7 -15 -29 -8
-22 -23 -58 -33 -80 -10 -22 -24 -59 -31 -82 -10 -31 -17 -40 -29 -35 -14 5
-14 4 -2 -11 8 -10 11 -20 7 -24 -3 -3 -6 -1 -6 5 0 7 -4 12 -10 12 -5 0 -10
-6 -10 -14 0 -23 -16 -27 -17 -5 -1 10 2 19 6 19 4 0 8 13 9 29 0 16 10 59 21
96 24 78 26 89 6 55 -8 -14 -19 -49 -25 -77 -6 -29 -16 -53 -21 -53 -6 0 -7 9
-3 23 4 12 7 29 8 37 1 8 5 18 10 22 6 4 4 13 -4 22 -11 14 -10 16 4 10 19 -7
21 2 4 20 -16 16 -25 -9 -249 -678 -111 -334 -157 -482 -149 -490 14 -14 13
-23 -4 -29 -11 -4 -14 -1 -10 11 8 28 -13 -18 -40 -90 -14 -36 -26 -72 -26
-78 0 -6 -5 -8 -12 -4 -7 4 -8 3 -4 -4 7 -12 -39 -154 -60 -186 -7 -10 -10
-25 -7 -32 3 -8 0 -14 -6 -14 -6 0 -11 -11 -11 -24 0 -14 -4 -36 -10 -51 -8
-22 -13 -24 -30 -15 -13 7 -20 7 -20 0 0 -5 7 -10 16 -10 11 0 14 -5 10 -16
-3 -9 -6 -21 -6 -28 0 -7 -7 -13 -15 -13 -8 0 -15 4 -15 9 0 5 -6 6 -12 2 -8
-4 -10 -3 -5 2 5 5 14 9 20 9 5 0 12 6 15 13 2 7 -2 10 -12 6 -19 -7 -20 -1
-4 43 7 18 19 33 28 33 9 0 11 3 4 8 -17 11 -22 35 -10 49 29 32 34 41 30 46
-3 2 -2 17 2 31 5 23 8 24 18 11 9 -13 11 -10 13 17 2 26 0 30 -8 18 -8 -11
-9 -9 -3 10 4 14 9 31 12 39 4 10 1 12 -9 7 -10 -5 -10 -4 1 6 9 7 15 22 15
33 0 11 5 25 11 30 18 16 46 135 39 162 -5 20 -3 24 9 20 15 -6 22 15 17 46 0
4 4 7 10 7 8 0 8 4 -1 14 -9 11 -9 19 0 33 10 16 10 15 5 -4 -4 -14 -2 -23 4
-23 6 0 11 8 11 19 0 10 7 32 15 47 18 35 21 69 4 44 -8 -12 -9 -11 -6 5 2 11
8 19 14 18 6 -1 30 56 53 127 24 73 46 127 52 124 10 -6 5 47 -7 65 -3 6 0 9
7 6 10 -4 20 16 36 70 12 41 27 75 33 75 5 0 7 5 4 10 -10 15 5 51 17 44 7 -5
9 -1 5 9 -3 9 -2 27 4 39 l10 23 -5 -23 c-2 -12 0 -19 6 -16 5 3 7 18 3 32 -6
31 27 127 39 115 5 -5 5 2 2 15 -10 32 23 105 41 91 10 -9 13 -8 13 5 0 9 -4
16 -10 16 -5 0 -10 5 -10 12 0 6 3 8 7 5 10 -10 32 27 23 38 -5 6 2 40 16 79
28 80 29 88 9 62 -8 -11 -15 -15 -15 -10 0 6 6 18 13 27 7 10 12 40 11 67 0
27 3 47 8 44 4 -3 8 -11 8 -19 0 -8 5 -17 12 -21 7 -5 9 -2 5 9 -4 10 -2 14 6
11 7 -2 13 6 14 23 1 26 0 27 -13 8 -13 -17 -19 -14 -15 8 1 5 -3 6 -9 2 -5
-3 -10 -1 -10 4 0 6 5 11 11 11 5 0 7 5 4 10 -10 16 21 41 41 33 12 -4 15 -3
10 5 -4 7 -3 12 3 12 6 0 8 7 5 15 -4 9 0 15 7 15 10 0 10 3 3 8 -15 10 -27
62 -15 62 6 0 7 7 4 17 -4 9 -2 14 3 11 5 -3 10 6 10 20 2 43 57 173 67 159 5
-7 7 -3 3 13 -3 15 7 60 24 110 16 46 28 86 26 88 -4 4 -43 -95 -106 -268 -23
-63 -54 -149 -70 -190 -15 -41 -42 -111 -59 -155 -16 -44 -30 -75 -30 -68 -1
11 51 169 69 208 5 11 27 72 50 135 23 63 57 158 76 210 19 52 29 88 21 80
-17 -19 -34 -60 -97 -240 -29 -80 -79 -219 -112 -309 -71 -192 -79 -221 -69
-221 5 0 19 27 31 60 13 34 24 59 26 57 5 -4 -49 -153 -58 -163 -4 -3 -4 3 -1
15 3 12 1 21 -4 21 -5 0 -18 -29 -30 -65 -23 -72 -17 -87 10 -25 30 70 28 43
-4 -42 -17 -45 -32 -85 -35 -88 -6 -6 2 39 11 63 4 9 3 17 -3 17 -5 0 -12 -10
-15 -22 -3 -13 -38 -115 -77 -228 -39 -113 -70 -205 -70 -205 1 0 -3 -12 -8
-26 -6 -14 -36 -108 -68 -207 -33 -103 -64 -182 -71 -182 -6 0 -15 -9 -18 -20
-4 -11 -11 -17 -17 -14 -8 5 -9 1 -4 -11 3 -10 -1 -41 -10 -69 -11 -31 -13
-51 -7 -53 12 -4 -46 -203 -58 -203 -8 0 -39 52 -39 65 0 3 4 5 9 5 5 0 13
-15 17 -33 6 -28 8 -29 15 -12 11 28 10 56 -1 30 -6 -14 -9 -15 -9 -4 -1 8 -6
20 -13 27 -10 10 -15 7 -26 -10 -9 -15 -11 -17 -8 -5 3 10 6 23 6 28 0 5 8 9
18 9 10 0 18 8 18 18 1 9 4 31 8 47 l7 30 -14 -30 c-11 -25 -14 -27 -20 -12
-4 10 -3 16 2 12 5 -3 12 8 16 25 4 16 12 33 19 37 8 5 17 19 21 32 5 18 4 22
-6 16 -9 -6 -11 -3 -6 9 4 10 10 29 13 42 3 13 12 24 19 24 10 0 21 26 41 99
2 9 -5 -2 -16 -24 -26 -50 -25 -47 45 168 32 98 61 173 65 167 4 -6 12 8 19
31 7 22 15 48 18 57 4 10 2 13 -5 8 -15 -9 -15 -5 3 35 8 19 15 27 15 19 1 -8
8 1 15 20 16 42 18 61 5 40 -9 -13 -10 -13 -9 0 0 22 27 78 29 60 0 -8 7 0 15
18 8 18 14 36 14 40 -5 30 3 72 12 69 6 -1 14 4 17 12 2 8 0 11 -5 8 -6 -4
-10 6 -9 22 1 16 4 27 8 25 7 -4 30 57 27 72 -5 28 2 46 16 40 13 -5 14 -2 4
17 -11 20 -11 21 4 8 14 -11 18 -11 23 5 4 11 9 24 11 29 3 6 -3 1 -13 -10
l-17 -20 8 20 c5 11 9 30 9 42 1 11 5 19 10 15 5 -3 7 4 4 16 -4 16 -2 19 10
15 9 -4 13 -2 9 4 -4 6 1 32 9 58 10 28 19 42 24 35 5 -8 9 -7 14 5 8 23 8 27
-4 20 -5 -3 -3 15 5 41 7 25 11 53 8 62 -4 15 -3 14 10 -1 13 -15 15 -16 21
-2 7 19 -3 47 -15 39 -5 -3 -6 3 -2 12 4 11 8 13 11 6 6 -20 22 -13 33 15 7
19 7 35 0 51 -8 17 -8 21 0 17 6 -5 10 0 9 11 -4 34 0 42 18 40 12 -1 17 7 18
27 1 15 -3 27 -7 27 -5 0 -6 7 -3 15 4 8 10 12 15 9 5 -3 9 2 9 10 0 9 4 16
10 16 5 0 6 7 3 17 -5 11 -3 14 6 8 10 -6 11 -3 1 15 -10 18 -9 21 1 15 9 -6
11 -3 6 8 -8 22 3 78 14 71 5 -3 6 3 2 12 -3 10 -2 15 3 12 5 -4 9 4 9 17 0
14 -5 21 -12 18 -7 -3 -13 -11 -13 -17 0 -7 -7 -21 -16 -32 -8 -10 -13 -14
-10 -7 4 6 1 15 -5 18 -6 4 -13 -2 -16 -14 -3 -11 -10 -18 -16 -14 -6 4 -8 0
-4 -10 3 -10 2 -17 -4 -17 -7 0 -8 13 -4 33 l6 32 -16 -25 c-12 -18 -15 -20
-10 -5 4 11 9 33 12 50 6 28 5 29 -10 13 -9 -9 -17 -22 -17 -29 0 -7 -3 -10
-6 -6 -4 3 -2 19 4 36 8 23 7 32 -4 42 -11 9 -14 9 -14 -1 0 -10 -3 -10 -14
-1 -10 8 -16 9 -21 1 -6 -9 1 -14 18 -11 4 0 7 -3 7 -8 0 -5 3 -18 6 -28 3
-11 2 -14 -3 -7 -11 14 -46 27 -38 14 3 -6 2 -10 -4 -10 -6 0 -15 -19 -22 -42
-6 -24 -22 -64 -35 -90 -13 -26 -24 -55 -24 -65 0 -9 -16 -53 -34 -98 -19 -44
-38 -96 -41 -115 -3 -19 -10 -36 -16 -38 -5 -2 -9 -12 -9 -22 0 -32 -33 -91
-47 -86 -7 3 -13 1 -13 -4 0 -6 5 -10 11 -10 5 0 7 -5 4 -10 -4 -6 -11 -8 -16
-5 -5 4 -9 2 -9 -4 0 -5 6 -12 13 -14 7 -3 4 -6 -7 -6 -15 -1 -16 -4 -6 -16
10 -12 10 -15 -4 -15 -9 0 -16 5 -16 11 0 5 -4 7 -10 4 -5 -3 -10 -1 -10 4 0
6 5 11 11 11 5 0 7 5 3 12 -5 7 -3 8 6 3 10 -6 11 -4 6 11 -18 43 -18 54 -2
54 21 0 20 9 -1 27 -10 8 -13 12 -7 9 7 -3 15 6 19 21 4 19 9 23 14 14 6 -9
14 3 25 35 9 26 14 49 12 52 -3 2 0 10 7 17 9 10 14 9 24 -4 11 -13 12 -12 4
9 -5 14 -14 24 -20 23 -6 -2 -11 2 -11 8 0 7 12 10 30 7 35 -5 35 -6 14 34 -9
17 -13 41 -10 53 8 31 -7 39 -29 15 -16 -18 -18 -18 -35 -2 -9 9 -20 24 -23
32 -3 10 -10 3 -21 -22 -21 -49 -21 -50 10 -46 31 4 51 -20 39 -48 -5 -14 -9
-15 -12 -6 -4 10 -12 5 -25 -15 -21 -31 -21 -34 -1 42 11 42 -15 -2 -37 -62
-12 -35 -24 -63 -27 -63 -2 0 -1 9 2 20 4 13 2 20 -6 20 -7 0 -9 -3 -6 -7 4
-3 2 -13 -5 -20 -8 -10 -8 -17 -1 -21 5 -4 12 -14 15 -22 4 -10 10 -4 21 20
10 23 16 28 16 16 1 -12 6 -16 17 -12 10 4 14 1 12 -6 -3 -7 -11 -13 -18 -13
-7 0 -15 -7 -17 -15 -4 -13 -3 -13 6 0 9 13 11 13 11 -1 0 -9 -3 -19 -7 -23
-5 -4 -8 -13 -8 -19 -1 -7 -6 -11 -13 -10 -11 3 -16 -12 -15 -44 0 -6 -6 -9
-15 -6 -12 5 -14 0 -10 -28 7 -42 1 -59 -17 -53 -7 3 -15 -3 -18 -13 -3 -10
-4 -5 -4 10 1 22 5 27 19 24 19 -5 26 9 7 15 -7 2 -7 12 1 32 8 22 8 31 -1 37
-6 4 -8 13 -4 20 5 10 3 9 -7 -1 -18 -18 -34 -75 -18 -65 5 3 10 -1 10 -9 0
-20 -17 -29 -24 -14 -3 7 -3 0 -1 -17 3 -16 2 -24 -1 -17 -5 10 -9 9 -19 -5
-7 -10 -11 -22 -8 -26 3 -5 10 -3 15 4 5 9 6 4 2 -13 -5 -22 -3 -28 11 -28 14
0 15 -3 5 -15 -6 -8 -9 -19 -5 -25 3 -5 2 -10 -3 -10 -6 0 -14 17 -19 38 l-9
37 -19 -55 c-28 -84 -28 -89 -1 -35 13 28 25 43 25 35 1 -9 -4 -21 -11 -28 -9
-9 -9 -15 0 -24 9 -9 12 -7 12 10 0 20 3 21 21 12 16 -9 19 -18 14 -37 -9 -38
-27 -53 -43 -37 -18 19 -15 29 5 13 14 -12 16 -12 12 0 -9 26 -27 23 -43 -6
-13 -23 -15 -25 -16 -8 l-1 20 -11 -20 c-19 -31 -20 -49 -2 -34 8 6 14 8 14 5
0 -4 9 -2 20 4 16 9 18 8 14 -5 -4 -10 -2 -15 7 -13 7 2 21 -12 30 -30 17 -32
17 -32 23 -8 3 13 9 32 12 43 5 15 4 16 -6 3 -9 -12 -10 -10 -3 10 4 14 7 37
7 52 -1 15 2 25 7 23 4 -3 10 1 13 7 3 7 4 1 1 -14 -3 -15 -1 -29 4 -32 4 -3
7 14 6 37 -2 23 1 51 6 62 8 16 8 14 5 -10 -3 -16 -3 -24 0 -17 3 6 9 10 12 8
4 -2 8 10 8 27 1 17 6 33 13 35 6 2 9 7 6 12 -8 14 23 19 34 6 15 -18 -67
-249 -86 -242 -7 3 -13 1 -13 -4 0 -6 5 -10 10 -10 6 0 10 -5 10 -11 0 -6 -7
-8 -16 -5 -13 5 -14 4 -6 -7 6 -7 9 -23 5 -35 -4 -18 -8 -20 -19 -11 -9 8 -14
8 -14 1 0 -6 5 -14 10 -17 6 -3 10 -11 10 -17 0 -6 -6 -6 -15 2 -9 7 -19 10
-23 6 -4 -4 1 -12 11 -17 9 -6 17 -15 17 -21 0 -7 -5 -6 -15 2 -9 8 -15 9 -15
2 0 -6 5 -14 11 -17 6 -4 7 -20 3 -38 -9 -44 -14 -50 -30 -36 -10 8 -14 8 -14
0 0 -6 5 -11 10 -11 6 0 10 -5 10 -11 0 -6 -7 -8 -16 -5 -14 5 -15 4 -5 -8 8
-10 9 -25 4 -47 -9 -31 -33 -53 -33 -29 0 6 5 8 10 5 14 -9 13 8 -2 23 -9 9
-8 12 6 12 9 0 15 4 11 10 -3 5 -12 7 -20 4 -10 -4 -13 3 -12 29 1 19 6 32 11
29 5 -3 6 2 3 12 -9 23 3 72 13 56 5 -8 14 9 25 41 10 30 20 61 23 69 5 13 3
13 -10 2 -13 -10 -18 -10 -24 -1 -5 8 -3 9 6 4 10 -6 12 -4 7 8 -3 9 -1 17 4
19 6 2 7 11 3 21 -6 17 -8 16 -21 -3 -8 -11 -19 -17 -25 -14 -7 4 -8 -2 -3
-17 7 -21 6 -22 -9 -7 -19 19 -21 45 -4 50 9 3 9 6 0 12 -7 4 -12 2 -12 -4 0
-6 -4 -8 -10 -5 -5 3 -7 0 -4 -9 3 -8 1 -23 -6 -33 -9 -16 -10 -15 -4 6 4 14
2 21 -4 17 -11 -6 -35 -96 -28 -103 2 -2 7 9 11 26 4 17 11 31 16 31 5 0 4
-11 -1 -25 -6 -16 -6 -25 1 -25 5 0 12 7 16 16 5 13 7 13 14 2 5 -7 9 -17 9
-23 0 -5 -4 -4 -9 4 -5 8 -11 9 -15 3 -3 -6 -2 -13 4 -17 5 -3 10 -11 10 -17
0 -6 -10 -3 -21 8 -22 19 -22 19 -10 -3 6 -13 16 -23 21 -23 6 0 5 -10 -2 -25
-6 -13 -14 -22 -19 -20 -4 3 -5 -5 -2 -17 4 -22 4 -22 -8 -3 -13 19 -14 19
-19 -10 -4 -16 -2 -36 4 -44 9 -12 8 -13 -3 -6 -11 6 -13 4 -8 -8 3 -10 2 -17
-4 -17 -5 0 -12 7 -15 15 -4 8 -11 12 -17 8 -6 -3 -7 -1 -3 6 4 6 12 8 18 5 7
-4 8 4 3 26 -5 22 -3 35 5 40 8 5 9 10 2 14 -6 3 -14 -4 -17 -16 -31 -101 -88
-257 -94 -254 -3 2 -7 -12 -8 -33 -3 -43 -28 -117 -39 -114 -8 3 -13 53 -4 53
3 0 10 8 17 19 10 16 9 19 -13 19 -22 0 -29 -16 -111 -269 -57 -176 -90 -265
-96 -257 -5 8 -6 5 -2 -9 7 -25 -2 -66 -13 -59 -4 2 -7 -10 -8 -27 -1 -18 -8
-48 -17 -67 -16 -34 -16 -34 -10 -5 8 41 -3 29 -15 -18 -8 -27 -7 -35 0 -30 8
4 9 0 5 -11 -4 -10 -7 -23 -7 -29 0 -7 -4 -6 -10 3 -6 9 -10 10 -10 3 0 -6 -3
-20 -6 -30 -5 -15 -4 -15 5 -3 18 24 13 2 -21 -101 -17 -54 -35 -96 -39 -93
-4 2 -5 -4 -3 -13 3 -10 -6 -51 -20 -91 l-25 -72 245 0 244 0 11 27 c5 14 8
31 5 37 -2 6 -5 2 -5 -8 -1 -11 -4 -17 -7 -14 -3 3 4 38 16 77 22 72 34 93 25
44 -4 -23 -3 -22 7 5 6 17 15 32 20 32 5 0 7 4 4 8 -5 8 9 60 29 117 l8 20
-17 -20 -16 -20 6 20 c4 11 12 25 19 30 7 6 15 21 20 34 5 18 4 22 -6 17 -8
-4 -7 -2 2 6 9 7 18 20 21 28 4 11 9 6 19 -15 7 -16 18 -33 22 -36 12 -9 -11
-51 -24 -44 -5 4 -9 2 -9 -4 0 -5 4 -11 9 -13 5 -1 -6 -52 -25 -112 -33 -108
-53 -152 -39 -86 11 52 0 34 -24 -39 -23 -71 -28 -107 -11 -81 6 10 10 11 10
3 0 -10 275 -13 1340 -13 1170 0 1340 2 1340 15 0 8 9 19 20 25 21 11 24 8 21
-22 -2 -17 117 -18 2377 -18 l2380 0 3 44 c2 24 3 632 1 1350 l-2 1306 -748 0
-747 -1 -23 -62 c-12 -34 -92 -271 -178 -525 -124 -371 -153 -467 -143 -478 6
-8 9 -18 5 -21 -4 -4 -11 -2 -15 6 -6 8 -13 -1 -23 -31 -77 -221 -92 -257
-100 -252 -4 3 -5 -1 -2 -9 3 -8 -2 -31 -10 -52 -9 -21 -16 -46 -16 -56 0 -11
-4 -19 -8 -19 -4 0 -8 -9 -9 -20 -1 -11 -11 -39 -22 -63 -11 -23 -22 -55 -26
-70 -6 -32 -20 -29 -27 7 -4 19 -1 23 11 20 9 -3 7 2 -6 11 -21 16 -21 18 -6
42 9 13 16 37 15 54 0 16 4 29 9 29 5 0 9 5 9 11 0 5 -4 7 -10 4 -5 -3 -10 1
-10 9 0 10 6 13 15 10 8 -4 15 -1 15 6 0 6 4 9 9 6 5 -4 7 2 5 12 -3 9 -1 28
5 42 5 14 10 20 10 13 1 -7 7 -10 15 -7 8 3 12 12 9 20 -3 8 -8 12 -13 9 -12
-8 1 99 14 110 18 14 59 143 53 165 -3 11 1 24 8 30 7 6 11 20 8 31 -4 12 1
25 12 33 9 6 26 36 36 66 19 54 25 93 9 55 -8 -18 -9 -18 -9 -2 -1 10 6 20 14
23 8 3 22 31 31 62 9 32 27 85 40 120 13 34 24 70 24 80 0 14 2 14 9 3 6 -10
8 -2 6 22 -2 20 0 37 3 37 4 0 16 28 26 63 11 34 23 69 27 77 4 8 10 28 14 43
3 15 10 25 14 22 5 -3 7 5 3 17 -4 16 -2 19 8 13 9 -5 11 -4 6 4 -5 7 2 43 15
82 14 44 26 65 31 57 4 -7 6 6 3 30 -2 23 0 42 4 42 4 0 12 12 18 28 10 25 11
25 12 5 1 -27 18 -31 18 -5 0 28 -17 42 -53 42 -30 0 -34 -4 -52 -52 -11 -29
-22 -60 -25 -68 -5 -13 -6 -12 -6 1 -1 9 6 36 14 59 8 23 15 48 15 54 -1 15
-20 -18 -30 -52 -5 -15 -25 -72 -45 -127 -51 -139 -52 -140 -31 -132 14 6 16
3 10 -16 -11 -37 -26 -56 -19 -24 3 15 2 27 -3 27 -5 0 -60 -158 -123 -350
-62 -193 -115 -347 -117 -342 -1 4 4 30 12 57 9 27 13 51 11 54 -3 2 -5 -2 -5
-10 0 -12 -2 -11 -11 1 -8 12 -9 10 -4 -9 5 -16 4 -21 -4 -16 -8 5 -10 -2 -6
-22 5 -22 4 -25 -5 -13 -9 12 -10 11 -5 -7 5 -18 3 -22 -9 -17 -9 3 -16 2 -16
-4 0 -6 5 -12 11 -14 6 -2 8 -14 3 -32 -5 -21 -9 -25 -16 -14 -6 9 -7 5 -2
-12 4 -14 10 -26 14 -28 9 -3 -14 -82 -95 -323 -30 -90 -52 -148 -50 -129 4
30 -70 -183 -107 -307 -6 -23 -16 -39 -22 -36 -5 3 -6 1 -2 -6 10 -15 -43
-173 -55 -166 -5 4 -14 -14 -21 -39 -7 -26 -16 -46 -20 -46 -10 0 -9 8 1 35 5
12 4 26 -3 34 -9 12 -8 13 3 6 11 -6 13 -3 9 13 -4 12 -3 20 2 17 4 -3 10 5
14 18 9 34 6 45 -5 18 -20 -49 -18 -12 2 47 21 61 37 86 25 37 -4 -14 -4 -25
-2 -25 8 0 38 112 32 118 -3 3 -6 -3 -7 -14 0 -10 -3 -13 -6 -7 -6 16 27 104
37 98 4 -3 13 16 20 40 7 25 17 45 22 45 5 0 7 4 4 9 -3 5 1 28 9 51 8 23 15
48 14 54 0 6 -13 -25 -29 -69 -39 -108 -37 -85 2 37 20 64 34 94 40 86 6 -10
8 -8 8 5 0 9 3 17 8 17 4 0 8 12 9 27 l1 28 -15 -25 c-8 -14 -12 -17 -9 -7 4
11 9 30 12 43 3 13 12 24 20 24 8 0 14 8 14 18 0 15 -2 15 -11 2 -9 -12 -10
-12 -5 3 3 10 6 24 6 30 0 8 3 7 9 -1 6 -10 10 -7 15 11 3 14 9 33 13 43 4 12
3 15 -5 10 -7 -4 -12 -2 -12 3 0 6 6 11 14 11 7 0 19 20 26 45 7 25 17 45 22
45 5 0 6 -4 3 -10 -3 -5 -1 -10 4 -10 6 0 11 6 11 13 0 9 3 8 9 -2 7 -11 10
-9 16 8 4 13 4 25 1 28 -3 4 -6 -2 -7 -13 0 -18 -1 -18 -9 1 -8 18 -9 18 -9 2
-1 -10 -6 -15 -11 -12 -6 3 -7 18 -4 33 4 21 3 24 -5 12 -8 -11 -11 -11 -11
-2 0 7 7 15 15 18 8 4 15 10 15 16 0 5 -4 7 -9 4 -5 -4 -7 3 -4 15 3 11 12 23
19 26 8 3 14 9 14 15 0 5 -5 6 -11 2 -12 -7 -9 7 22 91 16 43 18 45 14 15 l-5
-35 14 35 c26 68 29 83 15 75 -9 -6 -11 -4 -6 7 3 9 11 34 18 57 7 23 18 41
26 41 7 0 13 5 13 10 0 6 -3 10 -7 10 -5 0 -8 15 -9 33 -1 17 1 25 4 18 3 -8
15 16 28 55 12 38 26 68 30 66 5 -2 10 2 13 9 2 6 -1 9 -7 5 -6 -4 -8 2 -5 15
4 13 8 16 13 10 3 -7 11 4 17 24 8 26 8 35 0 35 -7 0 -4 5 6 11 9 5 17 15 17
22 0 7 -4 6 -10 -3 -8 -13 -10 -12 -10 3 0 9 7 17 15 17 8 0 15 5 15 11 0 5
-6 7 -12 4 -7 -4 -6 -1 3 7 22 18 37 63 18 54 -8 -4 -7 -2 2 6 9 7 19 24 23
38 l7 25 -15 -25 c-18 -29 -20 -23 -6 15 5 14 14 23 20 20 10 -6 15 14 11 49
0 10 7 25 16 33 10 8 11 11 3 7 -8 -5 -5 4 8 20 24 31 29 52 10 40 -13 -8 -8
12 16 69 l17 38 -133 -2 c-73 -1 -127 -4 -120 -6 6 -3 12 -9 12 -15 0 -6 -7
-7 -16 -4 -14 5 -15 4 -4 -8 17 -22 -15 -122 -35 -106 -8 7 -15 7 -19 1 -3 -5
0 -12 6 -14 10 -4 10 -6 1 -6 -18 -1 -16 -21 1 -21 9 0 12 -8 8 -26 -3 -19 -9
-24 -23 -21 -11 3 -19 1 -19 -4 0 -5 6 -9 13 -9 11 0 9 -13 -6 -60 -16 -48
-22 -58 -33 -49 -8 6 -14 16 -14 21 0 6 7 5 15 -2 20 -16 19 0 -1 28 -8 12
-13 30 -10 40 6 19 -14 66 -28 63 -5 -2 -13 3 -18 11 -5 8 -6 2 -2 -16 6 -26
5 -28 -8 -15 -9 8 -14 17 -11 21 2 4 -3 5 -11 2 -19 -7 -20 4 -5 43 5 15 7 24
2 20 -8 -8 -75 -198 -97 -277 -7 -25 -17 -44 -22 -43 -5 0 -10 -20 -10 -45 -1
-26 1 -38 3 -28 4 15 7 16 14 5 7 -11 9 -11 9 2 0 9 10 19 22 22 22 6 18 22
-5 22 -7 0 -12 7 -12 15 0 17 33 26 46 13 12 -12 -10 -75 -25 -70 -12 4 -46
-34 -46 -51 0 -6 -4 -13 -9 -16 -5 -4 -7 4 -3 16 3 14 1 19 -6 14 -6 -3 -13
-20 -17 -37 -4 -17 -9 -28 -12 -25 -8 7 -10 66 -2 66 12 0 16 34 7 55 -7 18
-8 17 -4 -3 3 -17 1 -22 -9 -18 -11 4 -39 -72 -116 -309 -59 -182 -107 -312
-112 -308 -6 4 -7 1 -3 -6 5 -7 5 -24 2 -37 -5 -20 -10 -23 -20 -15 -10 8 -12
3 -11 -24 0 -19 -3 -35 -7 -35 -4 0 -8 -5 -8 -11 0 -5 4 -8 9 -5 5 4 7 -3 4
-14 -3 -11 -10 -17 -16 -13 -7 4 -8 0 -4 -12 10 -24 -63 -250 -75 -233 -5 8
-6 4 -3 -12 7 -32 -38 -166 -55 -162 -9 2 -11 -6 -6 -30 3 -20 3 -28 -3 -20
-6 10 -10 8 -14 -10 -9 -33 -7 -46 4 -23 l9 20 -3 -20 c-2 -11 -9 -19 -15 -18
-7 2 -12 -5 -12 -14 0 -14 -3 -14 -12 -5 -10 10 -10 15 2 22 14 9 7 14 -13 11
-13 -2 -1 83 12 87 6 2 9 8 6 13 -3 4 2 20 11 34 9 13 18 48 19 77 3 45 -5 26
-57 -129 -54 -166 -78 -215 -78 -165 0 14 -2 15 -10 2 -8 -12 -10 -12 -16 3
-3 9 -14 17 -24 17 -10 0 -31 7 -46 15 -16 8 -23 15 -17 15 7 0 12 11 11 25
-2 23 -4 23 -24 10 -21 -14 -21 -13 -14 21 10 41 20 56 20 28 1 -18 2 -18 19
2 16 20 19 20 29 5 10 -14 11 -13 5 4 -4 11 -11 23 -17 27 -7 5 -3 8 8 8 11 0
16 5 13 14 -3 7 -2 17 2 22 13 15 31 75 21 69 -6 -4 -10 1 -10 9 0 9 6 16 14
16 9 0 12 7 9 20 -3 12 1 26 9 33 14 11 49 108 53 146 4 45 18 90 26 85 5 -3
6 2 3 10 -3 9 -10 16 -14 16 -12 0 -20 -28 -13 -45 3 -10 1 -15 -7 -13 -7 2
-17 -8 -21 -22 -4 -14 -7 -18 -8 -9 -2 25 43 146 47 126 2 -9 8 -15 13 -12 5
4 9 -2 10 -12 0 -11 3 -13 6 -5 2 6 8 10 11 8 4 -2 8 8 9 22 3 61 9 88 24 112
9 14 22 46 29 72 7 28 17 45 23 41 6 -3 7 -1 3 6 -9 14 24 111 37 111 5 0 6 7
3 16 -4 12 -2 15 9 10 11 -4 15 2 14 22 0 24 -1 25 -10 7 -8 -17 -9 -17 -4 5
2 14 5 30 5 35 0 6 4 4 9 -4 6 -10 9 -4 9 20 -1 19 6 50 15 69 9 19 16 28 16
20 -3 -35 3 -44 12 -22 5 13 6 29 2 34 -4 7 2 9 15 6 20 -6 21 -5 7 14 -12 18
-12 25 2 51 8 17 18 51 22 76 5 31 11 46 21 45 12 -1 15 10 13 48 -1 26 1 48
5 48 4 0 8 12 8 26 2 29 15 45 21 27 3 -7 8 -13 13 -13 9 0 5 54 -5 70 -3 5 1
7 9 4 11 -4 13 0 9 18 -4 18 -3 20 6 8 13 -19 14 -9 1 24 -8 21 -6 26 12 32
14 4 17 8 8 14 -9 6 -9 12 0 29 6 12 12 35 12 52 1 16 5 29 10 29 5 0 8 8 6
18 -2 9 -9 17 -16 17 -7 0 -17 7 -22 15 -9 13 -11 13 -20 0 -6 -10 -10 -11
-10 -2 0 21 -16 13 -27 -15 l-12 -28 6 28 5 28 -207 -2 c-201 -1 -207 -2 -216
-23 -9 -21 -10 -21 -5 2 4 23 -9 31 -17 10 -4 -10 -6 -10 -6 0 -1 8 -21 12
-65 12 -70 0 -80 -9 -71 -58 5 -25 5 -25 -4 -4 -6 12 -12 22 -15 22 -2 0 -4
-10 -3 -22 0 -13 -3 -36 -6 -51 -5 -24 -4 -27 9 -16 12 10 13 9 8 -5 -3 -9
-12 -16 -19 -16 -7 0 -15 -9 -18 -20 -3 -11 0 -20 6 -20 6 0 2 -7 -9 -16 -10
-8 -12 -12 -4 -8 11 5 10 2 -3 -13 -10 -11 -21 -37 -24 -57 -3 -20 -10 -39
-14 -42 -5 -3 -9 -11 -9 -17 0 -7 4 -6 11 3 8 12 9 9 4 -10 -14 -54 -17 -60
-23 -56 -4 2 -8 -10 -9 -28 -1 -17 -18 -83 -38 -146 -46 -140 -208 -635 -270
-821 -25 -75 -45 -141 -45 -147 0 -6 -9 -36 -21 -67 -17 -46 -23 -54 -35 -44
-15 12 -19 6 -27 -41 -3 -15 -5 -9 -6 17 -1 54 -21 68 -22 16 -1 -21 -5 -49
-10 -63 -8 -22 -8 -21 -4 8 2 17 0 32 -5 32 -6 0 -10 -6 -10 -12 0 -10 -3 -9
-9 1 -7 11 -9 11 -14 0 -3 -9 -6 -7 -7 6 -1 19 -2 19 -10 -1 -6 -15 -16 -21
-34 -19 -48 6 -124 36 -132 53 -10 25 -11 92 -1 92 5 0 7 9 4 20 -3 11 0 23 6
28 7 4 17 23 23 42 39 123 49 150 54 150 5 0 12 38 14 88 1 14 6 20 14 17 10
-3 10 0 1 16 -6 11 -8 23 -5 27 3 3 6 1 6 -4 0 -4 7 1 15 14 12 16 13 26 5 42
-7 13 -7 20 -1 20 6 0 8 7 5 15 -4 8 -1 15 5 15 6 0 10 8 9 18 -3 34 2 53 12
47 11 -7 25 39 16 54 -3 5 0 11 6 14 9 3 7 10 -7 26 -11 12 -15 22 -10 21 23
-5 34 1 29 15 -4 8 -1 15 5 15 6 0 8 8 4 18 -6 15 -5 15 10 3 20 -16 22 -8 6
21 -8 15 -8 19 0 14 8 -5 10 4 7 28 -4 35 7 56 19 36 3 -5 12 -10 18 -10 7 0
6 4 -3 10 -12 8 -12 12 -2 18 7 5 10 16 6 25 -4 11 -1 17 7 17 10 0 9 3 -2 13
-8 6 -12 11 -10 10 10 -6 32 54 37 103 6 49 9 54 28 49 17 -5 18 -4 6 5 -11 9
-12 13 -2 17 6 2 10 9 6 14 -3 5 0 9 6 9 7 0 9 7 6 16 -3 8 -3 26 0 39 4 17
11 23 27 20 20 -4 21 -3 5 9 -19 14 -25 32 -8 21 12 -8 13 5 1 24 -6 9 -11 10
-15 3 -4 -6 -13 -9 -21 -6 -16 7 -32 -21 -37 -62 -2 -16 -7 -32 -13 -37 -6 -4
-3 -11 8 -18 24 -14 22 -32 -3 -19 -16 9 -20 8 -20 -5 0 -9 5 -13 10 -10 6 3
10 1 10 -4 0 -6 -6 -11 -13 -11 -13 0 -42 -70 -51 -120 -3 -14 -5 -26 -7 -27
-1 -2 -2 -6 -4 -10 -1 -5 -4 -15 -7 -23 -3 -8 -15 -42 -25 -75 -49 -151 -62
-212 -42 -199 8 4 10 3 5 -5 -4 -6 -12 -9 -17 -6 -5 4 -9 -1 -9 -9 0 -9 6 -16
13 -17 6 0 2 -5 -9 -11 -13 -6 -26 -26 -32 -51 l-11 -42 4 45 c5 48 -6 32 -20
-29 -5 -23 -4 -31 4 -27 6 4 11 2 11 -4 0 -7 -7 -10 -15 -6 -9 3 -15 0 -15
-10 0 -9 5 -12 12 -8 8 5 9 2 5 -10 -4 -10 -7 -22 -7 -27 0 -5 -7 -9 -15 -9
-8 0 -15 -4 -15 -10 0 -5 5 -10 10 -10 6 0 10 -4 10 -10 0 -20 -21 -9 -30 15
-5 14 -15 24 -21 23 -6 -2 -18 7 -26 20 -10 14 -11 22 -4 22 6 0 11 -8 12 -17
0 -14 2 -15 6 -3 6 15 23 30 35 30 3 0 11 -12 17 -27 l11 -28 -5 27 c-3 14 -8
34 -12 44 -4 12 -3 15 6 10 9 -6 10 -1 5 18 -4 17 -2 26 6 26 6 0 9 4 5 10 -3
5 -12 7 -19 4 -13 -5 -31 24 -21 34 3 3 5 0 5 -6 0 -15 26 -16 35 -2 3 5 0 7
-9 4 -17 -6 -33 36 -21 55 3 6 2 11 -3 11 -5 0 -7 11 -4 25 5 26 27 34 35 13
4 -10 6 -10 6 -1 1 14 -51 65 -58 57 -3 -3 1 -9 8 -13 11 -7 11 -16 1 -45 -6
-20 -14 -36 -16 -36 -3 0 -2 9 1 20 5 15 2 20 -10 20 -12 0 -15 -5 -11 -16 6
-15 4 -15 -11 -3 -15 12 -16 12 -10 -3 3 -10 2 -18 -4 -18 -6 0 -8 -9 -4 -21
5 -16 4 -19 -5 -14 -9 5 -10 2 -5 -14 6 -19 -2 -26 -27 -22 -12 1 -20 -41 -9
-52 7 -7 13 -3 20 14 7 16 10 18 10 7 1 -23 -30 -53 -39 -38 -4 6 -6 -14 -5
-44 1 -31 -2 -53 -6 -50 -5 3 -9 -1 -9 -8 0 -9 -3 -9 -10 2 -6 9 -10 10 -10 3
0 -6 -3 -19 -7 -29 -4 -11 -3 -15 4 -11 7 5 9 0 6 -13 -3 -11 -9 -17 -14 -14
-16 9 -10 -7 9 -24 10 -10 12 -13 4 -7 -11 7 -13 5 -10 -10 2 -14 10 -19 26
-17 24 4 27 -5 11 -28 -9 -13 -10 -12 -5 3 3 9 1 17 -4 17 -6 0 -10 -5 -10
-12 0 -6 -7 -3 -15 8 -9 12 -14 14 -15 6 0 -23 21 -53 33 -47 7 4 3 -1 -8 -10
-17 -13 -18 -18 -7 -36 9 -15 10 -19 2 -14 -9 5 -10 1 -6 -13 4 -11 2 -23 -3
-26 -6 -4 -7 -14 -4 -23 5 -11 0 -10 -16 6 -15 15 -20 29 -16 42 4 13 2 19 -7
17 -17 -4 -28 -19 -27 -38 0 -11 2 -10 7 3 6 15 9 13 19 -13 9 -23 9 -28 0
-23 -19 12 -38 12 -35 1 2 -6 12 -12 22 -14 25 -4 26 -7 13 -34 -13 -26 -36
-33 -50 -15 -5 5 -6 -3 -3 -20 3 -16 3 -24 0 -17 -6 13 -25 17 -22 5 1 -5 -1
-18 -6 -30 -8 -26 -36 -31 -36 -7 0 8 4 13 9 10 5 -3 12 1 15 10 8 22 8 26 -4
19 -5 -3 -10 0 -11 7 0 7 -8 -9 -17 -36 -9 -27 -24 -53 -32 -57 -19 -9 -51
-21 -68 -25 -8 -1 -22 -10 -32 -19 -23 -21 -32 -7 -20 34 5 19 5 31 -1 31 -5
0 -9 -6 -9 -12 0 -7 -5 -5 -11 5 -9 15 -13 16 -26 5 -14 -11 -15 -10 -9 12 14
49 29 80 37 80 5 0 4 -12 -1 -26 -13 -33 -13 -54 1 -54 6 0 8 9 4 20 -4 13 -2
20 6 20 7 0 9 3 6 7 -4 3 -2 11 3 18 5 6 12 22 14 36 3 13 5 25 7 27 1 1 3 7
4 12 1 6 3 11 4 13 4 4 9 67 6 67 -2 0 -11 -26 -21 -58 -18 -61 -32 -58 -15 4
6 21 8 40 6 43 -3 2 -5 -1 -5 -9 0 -10 -3 -10 -15 0 -12 10 -15 10 -15 -2 0
-8 6 -20 13 -27 10 -11 10 -13 0 -7 -8 4 -13 1 -13 -8 0 -9 -4 -16 -9 -16 -14
0 -30 -55 -20 -71 11 -18 11 -32 0 -24 -5 3 -12 1 -15 -4 -4 -5 -2 -12 3 -15
13 -9 1 -46 -15 -46 -8 0 -11 -6 -7 -17 5 -12 3 -14 -7 -8 -10 6 -12 4 -7 -8
3 -10 2 -17 -4 -17 -5 0 -9 -6 -7 -12 1 -7 -5 -26 -14 -43 -8 -16 -30 -79 -48
-140 -17 -60 -45 -153 -61 -205 -43 -142 -70 -242 -73 -270 -1 -14 -6 -33 -10
-42 -4 -10 -14 -39 -21 -65 -16 -55 -14 -198 -15 1455 l0 1032 -677 -1 c-373
-1 -670 -3 -661 -6z m3064 -606 c-3 -20 -17 -38 -25 -32 -5 2 -14 -14 -20 -37
-10 -33 -10 -42 1 -49 10 -7 9 -9 -4 -9 -17 0 -28 -33 -101 -287 -31 -105 -31
-107 -15 -97 7 4 8 3 4 -5 -4 -6 -11 -9 -15 -7 -4 3 -13 -17 -20 -44 -7 -28
-17 -50 -22 -50 -4 0 -6 -7 -3 -15 4 -8 1 -15 -5 -15 -6 0 -8 -7 -5 -15 4 -8
1 -15 -5 -15 -6 0 -8 -7 -5 -15 4 -8 1 -15 -6 -15 -7 0 -10 -7 -6 -16 4 -12 2
-15 -9 -10 -13 5 -14 2 -4 -15 8 -17 8 -20 -2 -17 -7 2 -13 12 -15 21 -4 27
18 87 29 80 6 -3 7 -1 3 5 -4 7 5 51 20 100 31 102 37 168 16 188 -8 8 -11 18
-7 22 3 4 12 0 19 -10 11 -14 14 -13 33 15 27 41 36 74 23 82 -6 3 -8 11 -4
16 3 5 10 6 16 3 6 -4 8 1 3 16 -4 14 -3 20 3 16 5 -3 12 3 15 14 3 13 1 18
-6 13 -6 -4 -8 2 -4 17 3 13 2 32 -4 42 -6 11 -6 18 0 18 5 0 12 -6 15 -12 4
-7 4 -3 2 10 -2 12 0 22 6 22 6 0 7 7 4 16 -3 8 -2 12 4 9 5 -3 12 6 16 21 4
16 9 22 14 14 5 -8 10 -1 14 16 7 25 9 26 17 11 14 -24 32 -22 19 3 -8 16 -8
18 4 14 8 -3 13 -11 12 -17z m-2902 -691 c-3 -14 -12 -26 -19 -26 -17 0 -26
-25 -14 -37 6 -6 -5 -38 -31 -86 -45 -86 -50 -104 -19 -67 20 24 20 24 0 -12
-12 -20 -23 -50 -24 -66 -1 -17 -5 -28 -8 -26 -4 2 -10 -3 -13 -12 -3 -8 -2
-12 4 -9 6 3 10 4 10 2 0 -9 -72 -215 -85 -244 -8 -17 -15 -36 -15 -43 0 -7
-6 -10 -14 -7 -7 3 -18 1 -24 -5 -13 -13 -14 -15 108 355 82 251 98 290 120
302 31 16 33 14 24 -19z"/>
<path d="M72806 2684 c-4 -9 -4 -19 -1 -22 2 -3 7 3 11 12 9 24 22 19 20 -9
-1 -20 -5 -23 -23 -18 -17 4 -23 1 -23 -11 0 -9 -5 -16 -11 -16 -6 0 -9 -6 -6
-14 3 -8 -3 -31 -13 -51 l-19 -37 21 18 c20 19 20 19 17 -5 -5 -30 -22 -37
-41 -17 -13 12 -18 5 -38 -57 -12 -40 -25 -78 -28 -86 -3 -9 -1 -12 6 -7 7 4
12 2 12 -3 0 -6 -6 -11 -13 -11 -8 0 -20 -23 -29 -55 -8 -30 -11 -55 -7 -55
17 0 9 -29 -11 -40 -11 -6 -22 -26 -26 -48 -4 -20 -11 -42 -16 -49 -6 -7 -5
-19 1 -32 11 -20 5 -51 -10 -51 -5 0 -9 5 -9 12 0 6 -3 9 -6 5 -3 -3 -2 -12 2
-19 12 -18 14 -39 4 -33 -5 3 -8 -3 -7 -12 1 -20 -48 -188 -64 -217 -7 -13 -7
-22 0 -29 6 -6 11 -16 11 -22 0 -5 -5 -3 -10 5 -8 12 -10 12 -10 -5 -2 -49 -8
-87 -15 -93 -4 -4 -5 7 -1 23 l6 30 -16 -29 c-10 -18 -12 -32 -6 -38 12 -12 3
-50 -10 -42 -6 4 -8 -2 -3 -15 5 -17 3 -20 -12 -14 -16 6 -16 5 -4 -10 12 -15
11 -17 -3 -17 -18 0 -22 -16 -6 -22 7 -2 5 -20 -4 -51 -16 -54 -12 -61 8 -14
l15 32 -5 -32 c-2 -18 -9 -44 -14 -58 -13 -35 -13 -38 4 -23 8 7 12 16 10 20
-3 4 3 24 12 45 9 21 16 44 15 51 -1 6 3 12 9 12 5 0 9 3 9 8 -1 4 0 9 1 12 1
3 4 18 6 34 3 16 10 39 17 50 6 12 12 24 13 29 1 4 2 8 3 10 2 1 4 15 6 31 2
16 8 32 13 35 9 6 25 63 22 77 -1 4 2 10 7 13 4 3 22 49 40 101 21 64 35 94
44 92 11 -3 11 -1 2 8 -12 13 -1 61 21 89 8 12 8 13 -2 7 -11 -6 -11 -4 -3 10
5 11 15 33 22 51 7 17 17 29 21 27 4 -3 5 2 2 10 -3 9 -1 16 5 16 6 0 8 7 5
15 -4 8 -1 15 5 15 6 0 8 7 5 15 -3 8 4 47 16 86 13 39 23 86 24 103 1 17 13
51 26 76 14 25 28 56 32 70 3 14 13 47 22 73 8 26 11 45 5 41 -6 -3 -9 2 -7
12 4 25 -37 32 -46 8z"/>
<path d="M74620 2665 c-9 -27 -10 -40 -2 -43 6 -2 8 -10 5 -18 -3 -9 0 -14 7
-12 7 2 15 -3 18 -11 3 -10 0 -12 -14 -7 -17 6 -17 6 -1 -12 9 -10 17 -21 17
-25 0 -4 9 -21 21 -39 16 -25 19 -27 14 -9 -5 16 -4 21 4 16 8 -4 11 1 10 17
-4 43 0 64 10 49 6 -9 15 6 30 50 25 76 27 101 2 40 -15 -37 -19 -41 -23 -23
-4 12 -2 25 3 28 5 3 6 10 3 16 -4 7 -2 8 4 4 7 -4 12 -2 12 3 0 14 -27 14
-35 0 -4 -6 -14 -8 -22 -4 -13 4 -14 3 -3 -10 10 -12 10 -15 -4 -15 -10 0 -16
8 -16 23 0 16 -3 18 -9 8 -7 -11 -9 -11 -13 0 -3 8 -11 -4 -18 -26z"/>
<path d="M77720 2697 c0 -1 -8 -25 -19 -53 -13 -38 -16 -56 -8 -70 5 -11 6
-16 2 -11 -13 11 -48 -72 -42 -99 2 -13 0 -24 -5 -24 -6 0 -7 -7 -4 -16 3 -9
2 -12 -5 -9 -6 4 -8 -3 -4 -22 5 -21 4 -24 -4 -13 -9 13 -11 13 -11 -3 0 -10
-7 -20 -15 -23 -8 -4 -15 -10 -15 -15 0 -6 8 -5 19 0 16 9 18 8 14 -9 -3 -11
-9 -17 -14 -14 -5 3 -6 -2 -3 -10 3 -8 12 -12 19 -10 11 5 11 -3 -1 -42 -8
-26 -12 -49 -10 -52 3 -2 12 21 22 52 10 31 21 56 26 56 4 0 5 6 2 14 -3 8 -1
17 5 21 6 3 11 15 11 25 0 10 5 31 12 47 6 15 12 31 13 36 2 4 4 9 5 12 1 3 4
10 5 15 1 6 4 13 5 18 1 4 2 11 1 16 -1 5 2 12 7 15 5 3 19 38 32 76 13 39 25
76 28 83 3 8 -7 12 -32 12 -20 0 -36 -1 -36 -3z"/>
<path d="M78030 2688 c0 -5 5 -6 10 -3 11 7 13 -15 4 -39 -8 -21 -25 -10 -17
12 4 12 1 11 -14 -5 -11 -13 -24 -19 -28 -15 -4 4 -4 -4 0 -17 5 -17 4 -22 -5
-16 -10 6 -11 1 -6 -19 4 -17 3 -25 -3 -22 -5 4 -13 -3 -16 -15 -6 -17 -9 -19
-17 -8 -7 10 -8 7 -4 -11 3 -14 6 -31 6 -38 0 -7 5 -10 10 -7 6 4 8 10 5 15
-3 4 -1 19 5 32 9 23 8 3 -6 -86 -3 -26 -2 -27 14 -15 14 11 15 11 5 0 -6 -7
-9 -21 -6 -30 4 -12 3 -13 -5 -2 -7 9 -11 10 -17 2 -4 -7 -1 -20 6 -29 11 -13
8 -12 -9 2 -20 17 -33 54 -14 43 4 -3 7 8 8 25 1 21 -2 26 -8 16 -6 -8 -7 -1
-4 22 5 30 5 31 -4 12 -5 -13 -7 -36 -4 -50 4 -21 3 -24 -5 -12 -13 19 -14 14
-2 -28 6 -20 6 -30 0 -27 -5 4 -9 1 -9 -5 0 -6 -3 -9 -7 -7 -5 3 -9 -16 -11
-41 -5 -81 -7 -90 -14 -85 -5 2 -8 -2 -8 -9 0 -9 -2 -10 -8 -1 -4 6 -7 -10 -8
-35 l-1 -47 12 35 c11 34 12 34 23 13 9 -16 9 -24 1 -29 -8 -5 -6 -10 5 -16 9
-5 14 -14 11 -19 -4 -5 -11 -7 -16 -4 -5 3 -6 -1 -3 -9 4 -10 -2 -19 -16 -24
-12 -4 -21 -11 -20 -15 2 -4 -1 -22 -4 -40 -7 -31 -8 -31 -21 -13 -11 15 -15
16 -15 5 0 -8 5 -20 12 -27 9 -9 9 -12 0 -12 -7 0 -12 6 -12 13 0 8 -4 7 -10
-3 -8 -11 -9 -7 -5 15 5 25 5 27 -5 12 -7 -10 -10 -27 -7 -38 3 -10 1 -16 -4
-13 -11 6 -29 -36 -22 -51 2 -5 -3 -1 -11 9 -9 11 -16 27 -15 35 0 12 3 10 9
-4 11 -25 12 2 1 28 -5 14 -11 5 -24 -37 -18 -55 -19 -56 -72 -71 -29 -9 -56
-22 -59 -30 -3 -8 -12 -15 -20 -15 -12 0 -13 6 -5 32 11 41 12 38 -5 38 -15 0
-16 16 -3 37 5 7 4 20 -1 29 -7 13 -11 9 -16 -20 -9 -48 -21 -46 -22 4 -1 22
2 37 7 35 4 -3 11 0 14 5 5 7 11 5 20 -6 11 -16 13 -14 21 17 5 19 9 39 9 44
0 6 4 13 10 17 6 5 6 11 -2 19 -9 9 -14 1 -24 -32 -6 -24 -14 -39 -16 -32 -2
6 3 35 11 64 9 29 14 55 11 57 -3 3 -5 0 -5 -8 0 -10 -3 -10 -15 0 -9 8 -15 9
-15 2 0 -6 5 -14 10 -17 6 -3 10 -11 10 -16 0 -6 -5 -7 -12 -3 -6 4 -8 3 -4
-4 3 -6 2 -13 -3 -17 -6 -3 -8 -12 -5 -19 3 -9 -2 -16 -12 -18 -18 -3 -25 -30
-26 -95 0 -13 -4 -23 -9 -23 -4 0 -6 -7 -3 -15 4 -9 0 -15 -9 -15 -18 0 -29
-24 -20 -47 5 -11 3 -14 -6 -8 -9 5 -12 2 -9 -11 2 -11 -2 -23 -8 -29 -7 -5
-24 -55 -39 -110 -15 -55 -33 -113 -40 -130 -7 -16 -16 -46 -20 -65 -4 -19
-18 -68 -31 -109 -13 -41 -26 -83 -29 -95 -9 -46 -14 -62 -23 -87 -6 -15 -9
-29 -6 -32 2 -2 -1 -17 -7 -33 -7 -16 -13 -32 -14 -36 -2 -5 -3 -9 -5 -10 -2
-4 -6 -23 -15 -68 -3 -19 -10 -48 -15 -65 -50 -159 -70 -229 -69 -248 1 -18 2
-18 6 -4 3 12 10 16 20 13 13 -5 14 -4 4 8 -14 17 -1 50 24 60 8 3 15 11 15
18 0 9 -3 9 -10 -2 -8 -11 -9 -8 -6 15 2 17 5 38 5 48 1 9 6 17 11 17 6 0 8
-10 4 -24 -3 -13 -1 -27 4 -30 6 -4 8 3 4 16 -3 14 -1 19 6 14 8 -4 8 3 1 26
-11 41 -11 47 1 28 9 -13 10 -13 10 0 0 13 1 13 10 0 8 -11 9 -7 4 14 -5 21
-4 27 5 22 8 -6 10 0 6 21 -4 23 -4 24 4 8 11 -23 14 -6 4 20 -5 15 -8 14 -19
-6 -19 -34 -17 -5 4 63 18 57 40 95 28 48 -13 -53 -15 -74 -4 -42 6 17 15 32
19 32 5 0 6 8 2 18 -3 9 -3 14 2 10 4 -4 15 -2 23 4 8 7 6 -2 -6 -24 -15 -26
-17 -39 -9 -47 8 -8 8 -11 -2 -11 -7 0 -11 -6 -8 -12 2 -7 -1 -26 -8 -43 -6
-16 -18 -55 -25 -85 -7 -30 -15 -59 -19 -65 -3 -5 -7 -17 -8 -26 -1 -9 -7 -29
-13 -45 -9 -23 -13 -25 -20 -14 -8 13 -10 12 -10 -2 0 -10 5 -18 11 -18 8 0 8
-4 0 -14 -6 -8 -11 -18 -10 -22 2 -5 -2 -27 -8 -49 -6 -22 -23 -83 -36 -135
-66 -247 -111 -399 -118 -395 -4 3 -5 -3 -3 -12 3 -10 -2 -39 -10 -65 l-14
-48 2309 0 2309 0 0 1350 0 1350 -716 0 c-482 0 -713 -3 -709 -10 4 -6 11 -8
16 -5 5 4 9 5 9 3 0 -5 -84 -248 -120 -348 -17 -47 -38 -105 -47 -130 -8 -25
-20 -56 -26 -70 -5 -14 -12 -36 -14 -50 -2 -14 -8 -29 -14 -35 -5 -5 -9 -16
-9 -25 0 -8 -7 -28 -16 -45 -9 -16 -18 -39 -20 -49 -5 -25 -20 -41 -27 -29 -3
5 0 21 8 36 16 31 9 36 -12 10 -12 -17 -13 -16 -11 7 2 14 9 25 17 25 8 0 16
6 19 14 3 8 0 11 -7 7 -7 -5 -9 3 -4 25 7 36 -17 62 -29 31 -5 -12 -6 -9 -5
10 1 21 4 24 14 16 10 -8 13 -7 13 3 0 12 2 12 9 0 6 -9 11 -10 15 -2 4 6 4
16 1 21 -3 6 1 10 10 10 9 0 14 4 11 9 -4 5 3 38 14 73 24 75 23 71 8 63 -7
-4 -6 -1 2 7 9 7 15 22 15 33 0 11 5 25 11 30 11 10 48 120 47 140 0 5 -4 19
-8 30 -5 15 -4 17 3 6 8 -11 12 -6 17 22 4 20 12 34 17 31 6 -4 5 4 -2 16 -9
16 -9 25 -1 33 8 8 11 6 12 -8 0 -13 5 -7 13 15 32 86 33 81 -23 79 -45 -2
-52 -5 -57 -26 -4 -12 -12 -23 -20 -23 -8 0 -14 -6 -14 -12 0 -9 -4 -8 -10 2
-8 11 -9 7 -4 -15 4 -23 3 -27 -5 -15 -9 12 -10 9 -5 -13 5 -21 3 -26 -8 -22
-9 4 -14 -2 -15 -17 -2 -18 0 -20 7 -8 13 20 12 10 -1 -30 -9 -24 -9 -34 0
-39 8 -5 3 -30 -15 -87 -26 -78 -47 -119 -38 -73 l5 24 -11 -25 c-8 -17 -8
-26 -1 -28 18 -6 12 -22 -6 -22 -12 0 -14 -3 -6 -8 9 -6 1 -42 -30 -141 -29
-93 -43 -127 -48 -114 -7 17 -8 17 -8 0 -1 -11 -6 -15 -13 -11 -7 4 -8 3 -4
-4 4 -6 -3 -42 -15 -79 -75 -239 -121 -381 -128 -398 -5 -11 -12 -27 -14 -35
-4 -11 -6 -9 -7 5 -1 11 -8 -1 -16 -28 -8 -26 -19 -47 -24 -47 -15 0 -22 38
-10 57 8 15 9 13 4 -9 -4 -19 -2 -28 6 -28 9 0 11 12 7 40 -3 21 -2 38 1 37
11 -3 14 7 7 25 -4 9 -2 25 4 35 9 15 10 13 6 -12 -3 -16 8 8 25 55 27 77 41
133 20 85 l-9 -20 0 20 c0 25 37 116 39 95 1 -8 6 -4 11 10 6 13 7 36 4 50 -4
16 -3 20 3 12 7 -11 10 -10 16 3 10 26 7 42 -5 25 -8 -12 -9 -10 -5 8 15 56
18 64 25 53 4 -6 25 44 46 111 52 169 49 156 36 138 -9 -13 -11 -13 -10 0 0 8
4 24 9 35 l9 20 1 -20 c1 -11 9 2 19 30 10 29 25 51 34 53 26 5 20 20 -6 17
-21 -3 -23 0 -18 24 4 21 6 22 9 7 3 -15 6 -16 13 -5 8 12 11 12 20 -1 9 -12
9 -11 3 5 -4 11 -7 31 -7 45 l1 25 -15 -25 c-8 -14 -12 -18 -10 -10 26 89 43
130 52 130 6 0 17 17 23 37 15 48 8 55 -8 8 -20 -60 -21 -34 -1 30 12 38 20
52 22 40 3 -15 7 -10 16 17 l11 37 -144 -1 -143 0 -6 -29 c-4 -16 -11 -32 -17
-35 -9 -6 -6 12 9 54 4 9 -12 12 -60 12 l-65 0 -16 -37 -16 -38 5 38 c5 35 3
38 -17 35 -18 -3 -28 -25 -68 -148 -28 -87 -49 -139 -53 -130 -4 8 -5 6 -2 -6
3 -12 1 -32 -4 -45 -6 -14 -10 -18 -11 -9 -1 8 -7 -1 -14 -20 -7 -19 -9 -38
-4 -41 5 -3 4 -16 -1 -30 -8 -20 -10 -21 -10 -5 -1 25 -7 18 -15 -19 -5 -22
-4 -26 4 -15 16 24 12 9 -31 -127 -22 -70 -50 -159 -62 -196 -13 -43 -23 -62
-27 -52 -4 11 -12 -3 -24 -40 -10 -31 -16 -59 -13 -61 3 -3 8 7 11 22 4 14 9
24 12 22 2 -3 0 -17 -5 -31 -7 -19 -15 -25 -26 -21 -9 4 -14 13 -11 20 7 17
-10 19 -18 2 -3 -7 -4 -4 -1 7 2 11 6 43 9 70 5 42 -1 31 -35 -69 -32 -90 -44
-115 -51 -102 -5 9 -14 16 -20 16 -6 0 -17 8 -24 18 -7 9 -14 12 -14 5 0 -16
-44 6 -59 29 -6 10 -8 17 -4 16 9 -3 13 5 13 27 0 8 -5 15 -11 15 -5 0 -8 -4
-5 -9 3 -5 -1 -11 -9 -15 -21 -8 -19 11 10 80 19 46 24 53 25 32 0 -15 -4 -29
-9 -32 -9 -6 -22 -46 -15 -46 3 0 9 11 14 25 6 17 14 23 25 18 11 -4 16 -1 14
8 -3 18 11 50 20 45 11 -7 8 69 -3 76 -8 6 -8 8 1 8 6 0 14 14 18 30 4 17 10
30 15 30 13 0 47 118 49 173 1 10 6 15 11 12 9 -6 11 1 15 46 0 9 6 23 13 32
7 8 14 28 15 45 1 16 5 28 10 25 4 -2 7 0 7 6 0 5 3 18 6 28 5 15 4 15 -5 3
-9 -13 -11 -13 -11 3 0 10 6 20 14 23 8 3 31 56 51 116 20 61 39 117 42 125 4
11 -32 13 -211 13 l-217 -1 -10 -27 c-16 -40 -49 -176 -44 -180 2 -2 10 18 18
44 12 43 14 46 19 21 3 -14 1 -24 -3 -21 -5 3 -9 -2 -9 -10 0 -9 -9 -25 -19
-35 -11 -11 -27 -45 -37 -75 -10 -31 -21 -56 -25 -56 -4 0 -5 -10 -1 -22 3
-13 1 -19 -5 -15 -7 5 -9 -1 -5 -15 4 -15 2 -19 -7 -13 -10 6 -11 2 -6 -15 5
-16 4 -20 -5 -15 -9 5 -10 1 -5 -15 5 -16 4 -20 -5 -15 -9 6 -10 1 -5 -16 7
-21 6 -22 -9 -10 -18 15 -21 8 -6 -20 6 -10 8 -19 6 -19 -12 0 -26 41 -19 53
4 6 9 21 10 33 2 12 17 61 33 109 31 93 39 133 15 78 -13 -31 -35 -45 -35 -22
0 5 5 7 11 3 7 -4 10 1 7 12 -2 11 -11 19 -21 19 -20 0 -22 9 -7 33 9 13 10
13 7 1 -3 -8 4 -21 15 -28 18 -11 19 -10 13 8 -5 16 -2 19 15 16 17 -3 20 0
16 12 -8 19 22 115 33 108 10 -6 31 63 25 80 -4 8 -32 13 -92 14 l-87 2 -27
-78 c-25 -72 -147 -456 -163 -513 -4 -14 -11 -29 -15 -35 -5 -5 -12 -28 -16
-49 -4 -22 -17 -65 -30 -95 -21 -53 -22 -54 -26 -26 -3 28 -5 27 -20 -20 -14
-41 -17 -45 -16 -20 1 54 -2 66 -12 60 -5 -3 -10 -26 -10 -51 0 -26 -4 -43
-10 -39 -5 3 -7 12 -3 20 3 11 1 13 -10 9 -10 -3 -18 2 -23 18 -7 23 -7 23
-16 -5 -11 -30 -17 -30 -113 -2 -45 13 -55 20 -56 38 -1 12 -3 41 -4 65 -2 28
0 40 8 35 7 -4 8 0 3 12 -4 11 -2 21 5 26 6 4 12 18 12 33 0 14 3 26 8 26 5 0
8 3 7 8 -1 4 4 20 11 36 6 16 9 31 7 34 -3 2 1 11 9 19 8 8 15 23 15 34 0 10
4 19 8 19 5 0 8 18 8 39 -1 31 2 37 12 29 10 -9 11 -5 2 17 -9 23 -8 30 5 37
8 5 15 16 15 23 0 8 7 15 16 15 13 0 14 3 4 15 -8 10 -10 30 -6 59 7 46 27 73
46 61 7 -4 6 1 -2 14 -12 19 -13 19 -20 3 -6 -15 -7 -15 -7 -1 -1 9 6 22 14
29 10 8 13 21 9 34 -6 20 -5 19 15 -3 11 -13 21 -19 21 -12 0 7 -7 19 -15 27
-8 9 -15 21 -15 27 0 8 4 7 12 -1 7 -7 16 -12 20 -12 4 0 -1 9 -12 20 -11 11
-27 20 -35 20 -18 0 -38 -46 -32 -72 3 -9 -1 -19 -8 -22 -7 -2 -16 -23 -20
-44 -3 -22 -13 -48 -20 -59 -13 -16 -13 -14 -5 16 5 19 8 37 5 39 -2 3 -10
-16 -17 -42 -7 -25 -18 -46 -25 -46 -7 0 -13 5 -13 10 0 6 3 10 8 10 4 0 7 11
7 24 0 13 -2 23 -4 20 -5 -5 -30 28 -31 41 0 6 5 3 10 -5 8 -13 10 -13 10 2 0
9 -4 20 -10 23 -17 11 -11 27 8 21 14 -5 13 -3 -3 10 -19 14 -19 16 -2 25 9 6
15 15 11 20 -3 6 2 9 11 7 10 -2 20 2 22 8 2 6 -13 11 -37 11 -22 0 -40 -4
-40 -9z m60 -278 c4 0 6 -10 3 -21 -6 -20 -7 -20 -20 7 -7 16 -11 22 -9 12 3
-9 2 -19 -1 -22 -3 -3 -7 -22 -9 -43 -3 -38 -3 -38 12 -13 9 14 13 17 10 7 -3
-10 -6 -25 -6 -34 0 -9 -6 -13 -14 -10 -11 4 -14 -3 -12 -29 3 -26 0 -32 -9
-24 -14 12 -25 3 -25 -22 0 -10 -4 -26 -9 -36 -18 -37 -41 -115 -35 -124 3 -5
2 -17 -2 -26 -9 -20 -11 -28 -13 -44 0 -7 -8 -4 -19 8 -11 12 -17 36 -18 69
-1 34 2 43 7 30 5 -13 8 -15 8 -5 1 8 4 26 6 40 5 22 4 22 -4 5 -6 -13 -10
-15 -10 -5 0 19 17 59 18 43 1 -7 4 -12 9 -12 19 3 22 -3 12 -21 -6 -11 -7
-20 -1 -20 5 0 12 12 15 28 4 15 9 36 12 47 l5 20 -16 -20 c-12 -14 -16 -15
-14 -5 3 21 -11 51 -22 44 -5 -3 -9 0 -9 5 0 14 13 14 28 -1 9 -9 12 -9 12 0
0 7 -7 15 -15 18 -8 4 -15 11 -15 16 0 6 11 3 25 -6 23 -15 25 -15 41 9 9 14
14 28 10 32 -3 3 -2 11 3 17 14 19 20 57 8 49 -7 -4 -5 1 3 11 8 10 15 25 16
33 1 8 6 22 9 31 6 14 9 12 17 -10 5 -16 13 -28 18 -28z"/>
<path d="M82623 2678 c-1 -12 -9 -26 -18 -30 -8 -5 -13 -13 -10 -19 4 -5 1 -9
-5 -9 -7 0 -10 -7 -6 -15 3 -8 1 -15 -4 -15 -5 0 -7 -7 -4 -15 4 -8 2 -15 -4
-15 -6 0 -17 -19 -25 -42 -27 -76 -55 -172 -62 -211 -4 -20 -11 -40 -16 -43
-5 -3 -9 -14 -9 -24 0 -11 -11 -53 -25 -95 -13 -42 -26 -86 -27 -98 -2 -12 -7
-28 -11 -34 -5 -7 -6 -13 -2 -13 3 0 0 -10 -6 -22 -7 -13 -14 -36 -16 -53 -2
-16 -10 -51 -19 -77 -8 -25 -17 -59 -20 -75 -9 -52 -67 -238 -79 -253 -7 -8
-9 -26 -6 -39 6 -21 8 -20 24 18 10 23 24 41 30 41 8 0 8 3 0 11 -7 7 -7 22 1
49 14 49 31 66 21 22 -5 -24 -3 -38 9 -51 13 -15 14 -24 6 -47 -6 -16 -29 -94
-51 -174 -76 -276 -121 -435 -139 -495 -9 -33 -32 -115 -50 -182 -33 -123 -33
-123 -64 -124 l-31 -1 30 -8 30 -7 -26 -11 c-18 -7 -29 -22 -36 -50 -7 -29 -7
-39 2 -39 7 0 10 11 8 26 -4 21 -2 23 6 11 9 -12 11 -13 11 -1 0 8 2 12 6 9 6
-6 -34 -137 -47 -154 -5 -6 -6 -14 -2 -17 3 -4 1 -13 -5 -20 -7 -8 -9 -17 -5
-20 3 -4 2 -7 -4 -7 -6 0 -9 -9 -5 -22 3 -14 1 -19 -6 -14 -7 4 -10 2 -7 -7 3
-7 -6 -56 -20 -108 -14 -52 -25 -97 -25 -101 0 -5 1010 -8 2245 -8 l2245 0 0
1350 0 1350 -735 0 c-581 0 -735 -3 -735 -12 0 -10 -3 -9 -9 1 -8 12 -42 -84
-138 -394 -17 -53 -32 -79 -34 -55 -1 22 -27 -51 -28 -77 -1 -13 -6 -23 -12
-23 -6 0 -8 9 -4 20 4 11 2 20 -4 20 -6 0 -11 4 -11 10 0 5 8 7 18 3 14 -5 15
-3 5 8 -7 7 -13 18 -13 24 0 5 5 3 11 -5 8 -12 10 -9 6 12 -2 15 -1 25 3 23
11 -7 61 160 54 179 -8 20 16 92 25 77 4 -6 15 13 24 42 19 60 21 79 7 57 -12
-18 -12 -2 0 25 6 13 9 15 9 5 1 -13 2 -13 11 0 5 8 10 22 10 30 0 13 -1 13
-10 0 -6 -9 -10 -10 -10 -3 0 7 8 17 18 22 12 7 -57 10 -229 11 l-247 0 -23
-65 c-12 -36 -26 -60 -29 -54 -4 6 -13 -10 -20 -36 -9 -31 -17 -44 -26 -41 -7
3 -18 -3 -24 -12 -9 -14 -10 -12 -4 8 4 14 8 36 10 50 4 46 16 90 26 90 5 0 6
5 3 10 -3 6 -2 10 3 10 5 0 12 9 15 20 3 12 0 20 -7 20 -7 0 -34 -66 -61 -150
-43 -134 -65 -179 -65 -135 0 9 -6 12 -15 9 -8 -4 -15 -1 -15 5 0 6 -10 11
-22 11 -23 0 -83 39 -61 40 6 0 11 9 10 21 -1 14 -7 19 -19 16 -19 -5 -23 9
-11 39 6 16 7 16 14 -2 7 -17 8 -17 8 -1 1 11 6 15 12 11 7 -4 10 -1 7 7 -3 8
-11 13 -17 12 -15 -4 -14 19 2 40 11 16 13 16 26 -5 13 -21 13 -22 -2 -9 -21
17 -24 -4 -3 -24 11 -11 16 -4 30 46 9 32 16 61 16 64 0 3 -15 5 -33 5 l-34 0
-33 -112 c-34 -120 -44 -139 -54 -113 -3 9 -2 14 3 11 12 -8 22 47 10 58 -5 6
-9 14 -9 20 0 5 6 2 13 -9 13 -17 14 -16 20 15 4 17 4 37 0 44 -3 6 -2 8 2 3
7 -6 34 53 35 76 0 4 -79 7 -176 7 -152 0 -175 -2 -170 -15 3 -8 1 -15 -5 -15
-6 0 -8 -9 -4 -20 4 -11 2 -20 -4 -20 -6 0 -8 -7 -4 -16 4 -11 2 -15 -7 -12
-7 2 -14 16 -14 30 -1 15 2 24 6 22 4 -3 8 -1 8 5 0 5 3 16 6 25 5 14 -7 16
-98 16 l-104 0 -13 -36 c-10 -27 -16 -33 -22 -23 -11 18 -26 3 -32 -31 -3 -16
-5 -10 -6 17 -1 57 -21 67 -22 11 0 -24 -3 -37 -6 -30 -4 10 -8 10 -19 1 -11
-9 -14 -8 -14 2 0 11 -2 11 -10 -1 -9 -13 -10 -13 -10 0 -1 8 -6 4 -12 -10 -6
-15 -12 -20 -15 -12 -3 6 -9 10 -13 7 -5 -3 -36 2 -69 11 -61 17 -78 35 -72
76 2 14 -13 16 -132 17 -131 0 -135 0 -142 -22 -7 -22 -7 -22 -15 3 -7 21 -8
22 -10 5 l-1 -20 -8 20 c-7 17 -9 16 -16 -13 -7 -33 -25 -46 -80 -56 -14 -3
-32 -12 -41 -20 -31 -32 -38 -13 -18 52 2 6 -1 12 -6 12 -6 0 -10 -8 -11 -17
0 -15 -2 -15 -8 2 -5 11 -5 22 0 25 4 3 4 11 0 19 -6 9 -10 6 -15 -13 -3 -14
-11 -26 -16 -26 -13 0 -13 7 0 31 8 14 7 19 -3 19 -7 0 -13 -10 -14 -22z"/>
<path d="M87477 2643 c-9 -32 -19 -76 -23 -97 -3 -22 -11 -51 -16 -65 -6 -14
-10 -32 -9 -38 1 -7 -3 -13 -9 -13 -5 0 -9 -3 -9 -7 4 -27 -3 -63 -11 -58 -5
3 -7 0 -4 -9 3 -8 -10 -67 -30 -133 -50 -170 -56 -194 -45 -188 5 4 9 12 9 18
0 7 9 30 20 51 10 21 22 55 25 75 3 19 11 40 17 46 7 7 9 2 5 -20 -4 -16 -4
-24 -1 -17 3 6 11 9 16 6 7 -5 8 -2 3 5 -9 16 15 102 27 95 5 -3 6 7 3 23 -4
23 -4 24 4 8 7 -14 10 -15 10 -5 0 8 -3 21 -8 29 -6 10 -11 6 -19 -15 -6 -16
-11 -22 -12 -14 -1 22 54 200 62 200 4 0 1 -21 -7 -47 -19 -60 -19 -72 -1 -48
8 11 12 24 9 29 -4 5 -1 6 5 2 14 -8 11 -47 -3 -39 -5 3 -4 0 3 -8 14 -15 16
-33 3 -25 -5 3 -11 -9 -14 -27 -13 -75 -20 -98 -30 -104 -7 -4 -8 0 -3 13 6
15 5 16 -5 7 -9 -9 -9 -15 0 -26 9 -11 9 -21 0 -43 -15 -36 -14 -32 -24 -77
-5 -26 -12 -37 -21 -33 -8 3 -14 1 -14 -4 0 -6 5 -10 10 -10 7 0 6 -8 -1 -22
-7 -13 -11 -24 -10 -26 3 -3 -5 -31 -105 -399 -49 -177 -93 -319 -98 -316 -5
4 -6 1 -2 -6 9 -15 -15 -112 -26 -105 -4 3 -5 -2 -2 -11 4 -8 1 -21 -5 -29 -6
-7 -7 -16 -3 -20 4 -5 0 -7 -8 -6 -8 1 -22 2 -30 1 -12 -1 -11 -4 3 -12 9 -6
15 -15 11 -21 -4 -7 -9 -7 -13 1 -4 6 -14 -10 -23 -34 -10 -25 -15 -45 -12
-45 3 0 10 14 16 31 8 23 13 27 19 17 12 -19 11 -30 -3 -22 -7 5 -8 3 -4 -5 9
-14 -24 -141 -36 -141 -4 0 -5 -7 -2 -15 4 -8 2 -15 -4 -15 -6 0 -8 -10 -4
-22 4 -16 2 -19 -8 -13 -10 6 -12 4 -7 -8 4 -10 -14 -95 -40 -190 -25 -94 -45
-180 -45 -191 1 -20 -42 -89 -50 -81 -3 3 -3 -6 -1 -20 3 -15 1 -25 -6 -25 -7
0 -10 -4 -7 -8 3 -5 0 -27 -6 -51 -7 -29 -13 -38 -19 -29 -13 20 -12 -8 1 -33
7 -11 7 -19 1 -19 -5 0 -12 6 -15 13 -4 6 -4 2 -2 -11 2 -13 0 -20 -6 -16 -5
4 -7 19 -4 35 3 18 1 29 -6 29 -6 0 -9 -3 -6 -6 3 -3 -2 -27 -12 -54 -14 -39
-15 -51 -6 -60 7 -5 17 -6 22 -2 4 4 2 -1 -5 -10 -7 -9 -10 -21 -7 -27 3 -5
-1 -11 -9 -15 -8 -3 -15 -1 -15 4 0 6 -5 10 -11 10 -5 0 -8 -4 -4 -9 3 -5 -2
-16 -10 -24 -17 -18 -20 -47 -5 -47 6 0 10 5 10 10 0 7 6 7 19 0 14 -7 721
-10 2215 -10 l2196 0 0 1350 0 1350 -1853 0 -1853 0 -17 -57z"/>
<path d="M91381 2678 c0 -13 3 -17 6 -10 2 6 9 12 15 12 5 0 8 -6 5 -12 -7
-21 21 -68 38 -62 8 4 17 -1 21 -10 3 -9 10 -14 14 -11 4 3 11 -2 14 -11 4 -9
13 -14 21 -10 8 3 15 0 15 -6 0 -7 6 -4 13 7 15 20 34 5 21 -17 -5 -10 -4 -10
6 -1 10 10 16 10 24 0 6 -7 10 -11 9 -9 -1 2 4 18 9 35 9 26 12 28 18 13 6
-17 7 -17 22 -2 11 10 19 12 23 6 6 -10 0 -74 -12 -114 -4 -13 -2 -16 8 -11 9
6 11 4 6 -8 -4 -11 -2 -14 8 -11 7 3 15 -2 18 -13 4 -16 5 -16 6 2 1 18 3 17
14 -5 7 -14 31 -34 55 -44 23 -11 42 -26 42 -34 0 -11 3 -12 14 -3 12 10 17 8
26 -9 6 -11 8 -26 4 -32 -4 -7 -3 -8 5 -4 7 5 19 -9 32 -38 25 -57 54 -77 127
-88 31 -5 60 -14 64 -21 5 -8 8 -8 8 -1 0 11 116 12 127 1 3 -4 14 4 25 16
l19 22 -6 -45 c-11 -75 -10 -85 2 -83 8 2 9 -6 2 -30 -5 -17 -23 -85 -40 -149
-19 -72 -35 -115 -42 -111 -6 4 -7 1 -3 -6 9 -14 -24 -141 -36 -141 -4 0 -5
-7 -2 -15 4 -9 0 -15 -10 -15 -9 0 -13 -6 -10 -14 3 -8 -3 -19 -15 -26 -12 -6
-21 -16 -21 -23 0 -8 3 -8 9 1 7 11 9 11 14 -2 7 -19 -19 -110 -41 -145 -10
-14 -12 -22 -5 -18 7 5 9 0 6 -13 -3 -11 -9 -20 -13 -20 -5 0 -6 -10 -2 -22 4
-16 2 -19 -8 -13 -9 5 -11 4 -6 -3 6 -10 -38 -201 -74 -322 -5 -19 -10 -47
-10 -61 0 -14 -9 -34 -20 -44 -11 -10 -20 -24 -20 -32 0 -8 -4 -11 -10 -8 -6
3 -7 -1 -4 -10 9 -23 -4 -67 -18 -59 -7 4 -8 3 -4 -5 4 -6 4 -26 1 -43 -6 -27
-9 -29 -17 -14 -5 10 -7 29 -4 44 5 20 4 23 -4 12 -5 -8 -10 -23 -10 -32 0
-10 -4 -18 -9 -18 -5 0 -12 -17 -15 -37 -4 -21 -9 -50 -12 -66 -4 -20 -2 -27
10 -27 9 0 16 -5 16 -11 0 -5 -5 -7 -12 -3 -7 5 -9 1 -6 -13 4 -16 1 -20 -15
-19 -13 1 -26 -11 -39 -36 -16 -31 -17 -40 -6 -60 7 -13 17 -26 22 -29 13 -10
-3 -31 -17 -22 -8 4 -7 1 1 -9 9 -11 10 -18 2 -23 -5 -3 -10 0 -11 7 0 7 -4 4
-8 -7 -5 -11 -5 -28 0 -37 12 -23 11 -28 -6 -28 -16 0 -17 -4 -18 -63 0 -32
-2 -35 -15 -25 -13 11 -15 10 -10 -10 5 -19 4 -21 -8 -12 -10 9 -11 17 -3 32
6 10 9 24 7 30 -2 6 -14 -15 -26 -47 -17 -44 -20 -61 -11 -69 9 -8 10 -8 5 2
-4 7 -1 12 8 12 11 0 13 6 9 17 -6 17 -6 17 9 2 20 -19 13 -63 -8 -55 -15 6
-19 -9 -5 -18 14 -9 0 -55 -21 -70 -18 -13 -18 -13 7 -13 20 0 27 6 35 36 5
20 15 43 21 51 11 15 9 2 -7 -65 l-6 -25 2146 0 2146 0 0 986 c0 606 4 983 9
979 5 -3 16 4 24 15 21 31 29 3 17 -62 -10 -53 -5 -93 10 -83 5 3 11 -1 13 -7
4 -10 8 -9 17 2 10 13 11 13 7 0 -4 -15 32 -50 52 -50 6 0 11 -5 11 -11 0 -5
4 -8 9 -4 5 3 16 -2 25 -10 8 -8 20 -14 27 -13 7 2 28 -30 48 -69 39 -78 70
-103 130 -103 17 0 31 -4 31 -9 0 -4 18 -5 40 -1 32 6 40 4 40 -8 0 -10 4 -12
13 -4 6 5 28 8 49 6 25 -3 42 1 53 12 24 25 30 10 17 -47 -12 -51 -9 -74 9
-64 5 4 9 -3 9 -14 0 -13 5 -19 14 -15 8 3 16 -4 20 -18 3 -13 9 -19 13 -13
12 15 36 18 27 4 -5 -9 -2 -10 9 -6 10 3 17 3 17 -1 0 -10 46 -9 56 1 11 11
44 9 44 -4 0 -5 6 -7 13 -3 10 6 10 4 0 -7 -18 -18 -16 -30 2 -23 8 4 15 14
16 23 0 10 2 11 6 4 2 -7 12 -13 20 -13 13 0 13 -2 2 -17 -12 -14 -12 -15 0
-9 10 7 12 3 6 -14 -4 -12 -9 -40 -11 -62 -2 -21 -11 -46 -19 -54 -8 -9 -18
-26 -21 -40 -3 -13 -11 -21 -17 -17 -6 3 -7 1 -3 -5 3 -6 1 -32 -5 -57 -8 -32
-14 -42 -20 -33 -12 18 -11 61 0 53 5 -3 12 -1 15 4 10 15 -10 22 -21 8 -15
-19 -22 -57 -11 -57 6 0 7 -11 4 -26 -4 -14 -2 -32 4 -39 8 -9 8 -15 0 -20 -5
-3 -10 0 -10 7 0 9 -3 9 -10 -2 -7 -11 -8 -5 -4 20 4 19 3 32 -1 27 -5 -4 -10
-17 -12 -30 -2 -12 -8 -26 -13 -31 -6 -6 -10 -24 -9 -40 0 -25 2 -27 8 -12 7
19 8 18 14 -4 4 -15 -1 -32 -15 -49 -20 -26 -20 -26 -13 -2 6 21 5 22 -8 10
-8 -8 -13 -16 -11 -18 2 -2 -3 -13 -11 -25 -18 -24 -20 -71 -4 -60 6 4 9 -1 8
-12 -2 -11 0 -25 4 -32 6 -8 2 -12 -12 -12 -14 0 -19 5 -16 20 2 11 0 22 -6
25 -8 5 -10 -4 -9 -40 0 -3 -6 -21 -14 -40 -8 -19 -11 -35 -6 -35 4 0 11 14
15 31 7 32 34 38 43 9 5 -13 3 -13 -11 -1 -15 12 -17 11 -17 -3 0 -9 5 -16 10
-16 6 0 10 -5 10 -11 0 -8 -5 -8 -15 1 -9 8 -15 9 -15 2 0 -6 5 -14 10 -17 6
-3 10 -14 10 -23 -1 -15 -2 -15 -15 2 -11 15 -15 16 -15 5 0 -8 6 -21 13 -28
10 -11 9 -12 -2 -6 -11 6 -13 3 -9 -13 4 -12 2 -22 -4 -22 -5 0 -6 -10 -2 -22
6 -20 5 -21 -10 -9 -14 11 -16 11 -16 -1 0 -8 5 -19 10 -24 14 -14 1 -46 -16
-40 -8 3 -14 1 -14 -4 0 -6 5 -10 10 -10 6 0 10 -5 10 -10 0 -6 -11 -8 -25 -6
-13 3 -28 -1 -31 -7 -4 -7 -4 -9 1 -5 4 4 15 3 25 -2 21 -11 16 -64 -6 -56
-19 7 -18 -11 1 -21 9 -5 12 -17 9 -31 -4 -12 -9 -20 -13 -18 -4 3 -30 -62
-58 -145 -36 -107 -46 -149 -37 -149 8 0 14 10 14 23 0 13 4 27 9 33 5 5 37
92 72 194 35 102 65 178 67 170 1 -9 -28 -107 -66 -218 l-69 -202 2129 0 2128
0 0 509 0 509 65 0 c36 0 65 -3 65 -7 0 -14 104 1 123 17 16 14 17 13 17 -10
0 -14 -5 -40 -12 -58 -10 -29 -9 -35 8 -47 10 -8 18 -18 17 -23 -2 -5 4 -7 12
-4 10 4 15 0 15 -14 0 -12 5 -24 10 -27 6 -3 10 1 10 10 0 12 4 13 18 7 9 -5
23 -7 31 -4 9 3 11 0 6 -8 -8 -13 10 -12 73 3 16 4 22 1 22 -11 0 -15 2 -15
10 -2 5 8 10 10 10 5 0 -6 -5 -16 -12 -23 -9 -9 -8 -12 5 -12 10 0 17 8 17 19
0 11 5 23 12 27 7 5 9 2 5 -9 -4 -11 2 -17 23 -22 15 -3 30 -14 32 -23 5 -18
48 -28 48 -11 0 17 28 9 33 -10 4 -17 10 -18 41 -11 25 5 36 4 36 -4 0 -6 4
-4 10 4 18 29 22 1 3 -31 -13 -24 -15 -33 -5 -36 6 -3 12 -9 12 -15 0 -6 -6
-6 -15 2 -12 10 -15 10 -15 -4 0 -9 5 -16 10 -16 6 0 10 -5 10 -11 0 -6 -7 -8
-17 -4 -15 5 -16 4 -5 -6 17 -18 15 -32 -3 -25 -8 3 -15 1 -15 -3 0 -5 4 -11
9 -13 5 -1 7 -16 4 -31 -4 -21 -10 -27 -22 -23 -13 5 -13 4 2 -8 21 -16 21
-20 1 -40 -9 -9 -17 -22 -18 -29 -2 -6 -6 -19 -9 -27 -3 -8 -12 -37 -21 -65
-49 -158 -69 -214 -76 -210 -4 2 -7 -8 -7 -24 0 -15 -9 -48 -20 -72 -30 -65
-34 -79 -20 -79 7 0 17 12 23 28 13 30 162 466 189 550 9 28 21 52 25 52 12 0
-6 -58 -101 -335 -88 -254 -99 -286 -99 -291 0 -2 952 -4 2115 -4 l2115 0 0
189 0 189 25 -2 c15 0 25 -7 25 -16 0 -13 1 -13 10 0 6 9 10 10 10 3 0 -9 10
-9 40 2 41 14 45 12 41 -22 -3 -24 17 -13 27 15 10 25 10 25 11 4 1 -13 5 -20
11 -17 6 3 10 -2 11 -12 0 -16 1 -16 9 2 8 19 8 19 18 -5 6 -14 11 -19 11 -12
1 7 6 10 11 7 6 -4 8 -10 5 -15 -3 -5 -1 -11 5 -15 5 -3 10 -1 10 4 0 6 14 11
30 11 22 0 30 -5 31 -17 0 -15 2 -15 9 2 5 11 9 14 9 7 1 -10 13 -13 46 -10
24 3 42 1 39 -3 -2 -4 0 -10 6 -14 5 -3 10 -1 10 4 0 6 9 11 20 11 11 0 23 6
26 13 3 9 16 12 34 9 19 -3 27 -8 23 -16 -4 -6 1 -5 10 3 9 7 18 11 18 7 1 -3
3 -10 4 -16 1 -5 3 -13 4 -17 1 -5 6 -1 11 7 8 12 10 9 10 -12 0 -29 -14 -38
-23 -15 -4 9 -6 9 -6 0 -1 -6 3 -14 8 -18 10 -5 -2 -53 -28 -120 -7 -16 -12
-32 -13 -35 0 -3 -3 -9 -7 -15 -13 -16 -22 -65 -13 -65 12 0 38 50 53 102 7
27 17 48 21 48 12 0 10 -11 -12 -75 -11 -32 -20 -62 -20 -67 0 -4 8510 -8
18910 -8 l18910 0 0 1350 0 1350 -23895 0 c-21006 0 -23895 -2 -23895 -15 0
-9 -6 -12 -15 -9 -8 4 -15 1 -15 -5 0 -10 14 -15 33 -12 11 2 8 -14 -5 -27 -9
-9 -9 -12 1 -12 7 0 9 -5 6 -10 -4 -6 -11 -8 -16 -5 -12 8 -12 -8 0 -21 8 -9
-35 -183 -49 -194 -3 -3 -7 -14 -7 -25 -1 -11 -4 -31 -8 -45 -3 -14 -7 -30 -9
-37 -6 -34 -18 -23 -13 12 5 28 4 34 -3 20 -12 -27 -12 -63 0 -67 6 -2 5 -19
-2 -46 -8 -32 -13 -40 -23 -32 -14 11 -27 63 -15 55 4 -3 10 4 13 15 3 10 0
21 -7 24 -7 3 -7 5 2 5 8 1 12 19 12 56 0 32 4 55 11 55 5 0 9 8 7 18 -1 9 2
23 7 31 5 10 4 16 -3 19 -8 2 -8 11 -1 29 5 14 7 42 3 62 -3 24 -2 31 4 23 7
-11 11 -10 17 5 5 10 7 24 6 31 -1 6 2 12 8 12 5 0 8 11 7 25 -1 33 -16 33
-16 0 0 -14 -5 -25 -11 -25 -7 0 -9 9 -5 23 3 12 6 28 6 35 0 6 8 12 18 12 14
0 15 2 2 10 -10 6 -875 10 -2392 10 l-2378 0 1 -22z"/>
<path d="M69586 2460 c-10 -27 -18 -55 -20 -62 -1 -7 -4 -18 -8 -23 -7 -11
-56 -147 -137 -375 -29 -80 -63 -174 -76 -210 -36 -99 -155 -459 -155 -470 0
-6 5 -10 11 -10 6 0 8 7 5 16 -4 12 -2 15 9 10 17 -6 17 -6 21 43 1 19 7 37
12 40 15 10 34 51 23 51 -11 0 -3 31 10 40 13 9 41 94 43 128 0 18 6 36 13 40
13 8 29 60 24 81 -1 7 2 10 8 6 13 -8 14 5 2 24 -10 15 8 43 22 34 4 -2 8 3 8
11 2 21 3 25 18 61 7 17 14 39 15 50 6 43 19 81 34 98 8 9 12 17 7 17 -4 0 -3
6 3 13 15 18 41 98 30 91 -6 -4 -2 6 8 22 14 20 15 26 4 19 -8 -5 -5 4 8 19
12 16 19 32 17 37 -3 4 1 25 9 46 8 21 17 51 20 66 4 15 11 25 16 22 9 -6 14
11 12 44 0 8 4 25 8 37 5 13 6 25 1 28 -4 3 -15 -17 -25 -44z"/>
<path d="M38285 2102 c-60 -91 -195 -290 -299 -441 -104 -152 -236 -346 -293
-431 -57 -85 -109 -154 -114 -152 -6 1 -8 -2 -4 -7 3 -6 -49 -92 -115 -192
-67 -99 -119 -183 -117 -186 6 -6 147 193 376 532 100 149 232 342 292 430 61
88 149 217 196 287 48 71 88 126 91 123 3 -2 0 -11 -7 -18 -6 -8 -9 -21 -6
-29 6 -15 -12 -36 -30 -36 -5 0 -11 -6 -14 -13 -2 -8 1 -9 10 -4 8 5 11 4 6
-1 -5 -5 -14 -9 -19 -9 -6 0 -13 -6 -16 -14 -3 -9 0 -11 9 -6 8 5 11 4 6 -1
-5 -5 -14 -9 -19 -9 -6 0 -13 -6 -16 -14 -3 -9 0 -11 8 -6 7 4 1 -10 -14 -31
-14 -21 -30 -39 -35 -39 -12 0 -66 -75 -302 -420 -255 -372 -351 -516 -427
-645 l-14 -25 21 25 c20 24 27 19 22 -19 -2 -7 3 -10 9 -6 6 4 9 13 6 21 -3 8
0 13 6 11 6 -1 13 4 16 12 3 9 0 11 -9 6 -8 -5 -11 -4 -6 1 5 5 14 9 20 9 7 0
12 7 11 16 -1 9 4 16 11 16 14 0 10 -17 -10 -52 -7 -11 -24 -42 -39 -70 l-28
-50 27 30 26 30 -26 -43 c-15 -24 -24 -46 -22 -48 3 -3 22 14 42 38 36 41 37
41 18 8 -12 -19 -24 -49 -27 -66 -4 -17 -19 -40 -34 -51 -32 -24 -142 -165
-142 -182 0 -7 -3 -10 -8 -7 -4 2 -71 -81 -150 -185 l-142 -189 695 0 695 0 0
933 -1 932 -25 -30 c-28 -32 -23 -17 8 25 16 23 18 43 16 184 l-3 159 -38 -56
c-20 -32 -40 -57 -43 -57 -6 0 -1 10 48 83 22 32 38 66 36 77 -2 12 -40 -37
-113 -148z"/>
<path d="M33563 2062 c-218 -326 -452 -660 -458 -654 -5 4 -5 2 -1 -5 3 -6
-46 -91 -112 -190 -144 -217 -141 -212 -119 -195 18 15 68 87 337 484 96 142
224 329 283 417 60 87 107 166 105 174 -2 11 -14 0 -35 -31z"/>
<path d="M33487 1890 c-59 -85 -183 -266 -275 -402 -149 -222 -194 -290 -256
-393 l-18 -30 21 25 c11 14 21 29 21 34 0 4 6 6 14 3 8 -3 17 -3 20 1 9 9 36
11 36 3 0 -4 -4 -11 -9 -16 -5 -6 -12 -21 -16 -35 -7 -23 -7 -24 10 -10 10 8
2 -10 -18 -40 -46 -67 -47 -83 -5 -44 18 16 27 22 21 14 -6 -8 -13 -32 -17
-52 -5 -25 -16 -44 -36 -58 -34 -24 -151 -175 -143 -184 4 -3 0 -6 -8 -6 -8 0
-39 -34 -69 -76 -54 -75 -83 -112 -251 -329 -47 -60 -92 -120 -100 -133 -8
-13 -30 -41 -50 -62 -20 -20 -46 -52 -58 -69 -21 -28 -21 -31 -4 -31 11 0 49
40 97 100 43 55 81 100 83 100 6 0 4 -3 -73 -100 -33 -41 -64 -81 -68 -87 -5
-10 129 -13 629 -13 l635 0 0 987 0 988 -25 -38 c-14 -20 -28 -37 -31 -37 -3
0 9 20 26 45 21 30 30 55 28 73 -3 23 -17 7 -111 -128z"/>
<path d="M28740 1856 c-30 -46 -57 -83 -61 -81 -3 2 -6 -1 -6 -8 0 -7 -51 -91
-114 -187 -130 -198 -138 -211 -119 -193 19 17 145 196 252 356 50 75 93 135
95 133 2 -2 -38 -66 -89 -142 -83 -125 -108 -163 -172 -269 l-18 -30 21 25
c20 25 26 20 22 -20 -1 -9 6 -5 18 10 11 14 21 30 21 35 0 6 -5 3 -10 -5 -7
-11 -10 -11 -10 -2 0 7 -4 10 -10 7 -5 -3 -10 -1 -10 5 0 7 6 10 14 7 8 -3 17
-3 20 1 7 6 36 12 36 7 0 -1 -7 -16 -15 -31 -8 -16 -13 -36 -10 -44 2 -8 -4
-26 -15 -40 -11 -14 -20 -20 -20 -14 0 6 7 17 15 24 8 7 15 18 15 24 -1 11
-24 -15 -42 -48 -7 -13 -7 -16 1 -12 6 4 11 3 11 -3 0 -5 -4 -13 -10 -16 -5
-3 -10 -12 -10 -18 1 -7 22 11 47 38 26 28 37 36 25 19 -12 -18 -24 -42 -26
-55 -3 -13 -5 -26 -6 -29 -2 -3 -2 -8 -1 -12 0 -4 -13 -17 -29 -28 -36 -26
-152 -175 -143 -184 4 -3 0 -6 -8 -6 -8 0 -39 -34 -69 -75 -56 -77 -91 -122
-266 -349 -54 -71 -98 -133 -96 -138 1 -5 -5 -11 -13 -14 -8 -4 -48 -47 -87
-97 -59 -74 -238 -289 -316 -379 -14 -16 20 -17 617 -18 l631 0 0 970 c0 533
-2 970 -3 970 -1 0 -27 -38 -57 -84z"/>
<path d="M63480 1605 c-18 -52 -37 -95 -42 -95 -5 0 -7 -4 -3 -9 6 -11 -15
-61 -26 -61 -5 0 -6 -6 -3 -13 2 -7 -2 -30 -11 -51 -9 -21 -13 -47 -10 -59 5
-17 4 -19 -4 -7 -9 13 -11 12 -12 -5 0 -19 -1 -19 -8 -1 -6 17 -8 17 -14 4 -3
-9 -3 -19 0 -22 9 -9 9 -65 1 -59 -5 2 -8 -3 -8 -12 0 -9 -4 -14 -9 -10 -6 3
-10 -3 -10 -12 -1 -46 -11 -105 -19 -116 -6 -7 -10 -15 -9 -19 1 -4 -5 -15
-13 -25 -8 -10 -13 -29 -12 -42 2 -15 0 -21 -7 -17 -10 7 -16 -7 -12 -28 1 -4
-2 -13 -7 -20 -5 -6 -17 -39 -27 -73 -10 -35 -23 -63 -28 -63 -6 0 -7 -3 -4
-7 4 -3 2 -12 -3 -18 -6 -7 -12 -26 -14 -44 -4 -38 -14 -50 -25 -33 -5 8 -18
-20 -36 -75 -15 -48 -33 -94 -39 -102 -9 -12 -8 -13 5 -9 13 5 16 2 11 -14 -3
-12 -7 -15 -12 -9 -3 6 -14 -15 -24 -46 -10 -32 -21 -64 -24 -72 -4 -10 -1
-12 8 -6 7 4 2 -6 -10 -23 -13 -17 -24 -47 -24 -66 -1 -19 -5 -32 -10 -28 -5
3 -6 -3 -2 -13 7 -20 -10 -85 -28 -100 -6 -5 -11 -23 -12 -40 0 -16 -4 -42 -8
-58 l-8 -27 98 2 c95 3 99 4 98 25 0 12 3 20 8 17 4 -3 8 3 8 12 0 10 -3 14
-7 11 -3 -4 -15 1 -26 10 -10 10 -22 17 -25 15 -4 -2 -8 1 -10 7 -2 6 1 11 7
11 6 0 8 7 5 15 -12 31 6 14 22 -22 10 -20 20 -31 22 -25 2 7 7 10 12 7 14 -9
34 58 34 112 0 29 3 53 8 53 4 0 8 5 8 11 0 5 -4 7 -10 4 -6 -4 -7 1 -4 12 5
17 5 17 -10 -1 -14 -18 -36 -15 -36 5 0 6 5 7 11 3 8 -4 9 1 4 16 -6 19 -5 21
13 11 26 -14 35 -14 27 -1 -3 5 -1 10 5 10 7 0 9 -8 5 -20 -3 -11 -1 -28 5
-37 10 -16 11 -15 6 6 -3 17 -2 21 6 13 7 -7 5 -27 -6 -65 -20 -68 -20 -67 0
-67 10 0 14 6 10 15 -3 8 -1 15 5 15 6 0 9 6 6 14 -3 8 -1 17 6 20 9 3 8 8 -3
15 -13 9 -13 11 3 11 21 0 21 -5 1 -62 -12 -35 -19 -45 -33 -41 -14 4 -21 -8
-38 -64 l-20 -68 160 -3 c118 -2 163 1 175 10 12 10 14 10 8 1 -5 -10 8 -13
58 -13 55 0 66 3 71 19 3 10 5 23 4 27 -5 27 3 45 17 42 10 -2 19 3 21 10 3 6
-3 12 -14 12 -17 1 -17 2 -1 13 10 8 13 18 9 26 -5 7 -6 22 -4 32 5 16 8 17
21 7 13 -11 14 -10 5 6 -6 10 -8 28 -5 39 5 19 6 19 23 -4 l18 -24 -6 25 c-3
14 -11 31 -17 39 -8 11 -8 13 2 7 7 -4 12 -1 12 8 0 9 4 16 9 16 5 0 8 14 6
32 -1 18 4 48 12 67 13 31 20 63 22 100 1 7 7 11 16 8 11 -5 12 -1 5 19 -7 17
-7 23 0 19 6 -3 10 -1 10 5 0 6 5 8 12 4 8 -5 9 0 6 14 -4 14 -2 20 5 15 7 -4
8 0 3 12 -4 11 -2 22 6 27 10 6 10 8 1 8 -10 0 -10 6 -1 25 6 13 15 22 19 19
5 -3 9 0 9 5 0 6 -5 11 -11 11 -8 0 -8 4 0 14 8 10 9 16 2 21 -7 4 -7 10 2 19
9 10 14 11 20 2 9 -11 9 -10 -8 43 -5 16 -4 21 4 17 14 -9 14 0 0 25 -8 15 -6
33 6 70 10 28 19 48 21 46 2 -2 -3 -24 -11 -48 -13 -35 -13 -48 -4 -67 9 -16
15 -19 21 -10 4 7 8 18 8 23 0 6 -4 4 -9 -4 -15 -24 -23 7 -11 44 11 32 20 40
43 36 5 -1 7 4 5 11 -3 7 1 19 9 26 14 14 18 47 5 38 -4 -2 -8 3 -8 12 0 9 -4
28 -8 41 -6 16 -5 21 3 17 6 -4 9 -2 6 6 -3 8 4 40 15 72 37 108 13 68 -33
-56 -26 -68 -58 -152 -71 -188 -14 -36 -25 -56 -25 -45 -1 12 3 25 8 30 12 14
113 317 107 322 -5 5 -36 -62 -36 -76 0 -10 -39 -88 -40 -79 0 4 16 51 35 104
19 53 33 99 31 101 -2 3 -7 -6 -12 -19 -4 -12 -14 -28 -22 -34 -8 -6 -15 -25
-14 -43 0 -17 -3 -29 -9 -26 -5 4 -6 -2 -2 -12 3 -10 3 -15 -2 -11 -4 4 -14 0
-23 -9 -12 -12 -13 -19 -4 -34 9 -15 9 -17 -2 -13 -19 7 -29 -25 -14 -44 11
-13 11 -14 -1 -8 -8 5 -16 3 -21 -4 -5 -8 -8 1 -7 23 0 20 4 34 8 31 4 -2 10
7 13 20 3 13 9 32 13 42 4 12 3 15 -6 10 -9 -6 -9 -3 1 13 10 16 10 25 2 39
-17 27 -37 20 -46 -15 -6 -23 -13 -31 -23 -27 -11 4 -15 -1 -15 -17 -1 -22 -2
-22 -11 -6 -8 13 -7 29 5 58 9 22 16 42 16 45 0 12 -22 -9 -31 -30 -9 -19 -9
-19 -6 6 2 16 0 25 -7 22 -6 -2 -18 1 -26 6 -12 8 -13 11 -1 19 8 5 9 11 3 15
-13 8 -26 -29 -16 -45 5 -8 3 -9 -6 -4 -10 6 -12 3 -8 -13 4 -12 3 -20 -2 -17
-4 3 -11 -2 -14 -11 -5 -12 -10 -13 -19 -5 -11 8 -23 -13 -58 -102 -24 -62
-43 -118 -43 -124 1 -7 -1 -13 -5 -13 -4 0 -20 -38 -36 -84 -22 -64 -33 -83
-45 -79 -9 4 -7 0 5 -10 20 -16 20 -16 -5 -17 -14 -1 -19 -4 -12 -7 6 -2 12
-11 12 -19 0 -9 -4 -13 -9 -10 -5 4 -7 -3 -4 -14 4 -17 2 -19 -13 -13 -17 6
-17 5 -5 -10 12 -15 12 -17 -4 -10 -15 5 -17 3 -12 -11 4 -11 3 -15 -4 -10 -8
4 -9 -1 -4 -16 5 -16 4 -20 -5 -15 -9 5 -10 1 -5 -15 5 -15 4 -20 -4 -16 -6 4
-11 3 -11 -3 0 -5 6 -12 13 -14 8 -4 7 -6 -3 -6 -8 0 -22 4 -30 9 -11 7 -11
10 -2 10 7 0 10 5 6 12 -5 7 -3 8 6 3 10 -6 12 -3 8 13 -4 12 -2 20 2 17 11
-7 8 48 -3 56 -4 3 -5 13 -1 23 5 12 9 14 14 6 4 -7 22 31 41 86 18 53 39 102
45 109 8 8 9 17 2 28 -5 10 -8 27 -6 39 2 14 -3 22 -15 24 -9 1 -15 -1 -12 -6
3 -4 -2 -13 -9 -20 -39 -31 -58 90 -23 144 10 14 17 36 17 48 0 13 7 32 15 42
8 11 15 29 15 41 0 12 5 26 10 31 6 6 13 24 16 39 3 16 8 33 12 39 12 20 29
96 21 96 -5 0 -5 7 -2 17 4 10 2 14 -5 9 -6 -4 -3 16 7 46 10 29 24 52 30 51
6 -2 11 2 11 7 0 6 -4 10 -10 10 -5 0 -7 6 -4 14 3 8 1 17 -5 20 -7 5 -5 20 6
47 8 22 13 42 11 45 -3 3 -20 -38 -38 -91z"/>
<path d="M64620 1495 c-6 -19 -9 -39 -5 -45 3 -5 1 -18 -4 -27 -6 -11 -11 -13
-11 -5 0 7 -4 11 -9 7 -5 -3 -12 -1 -15 4 -3 5 1 11 9 15 8 3 15 0 15 -6 0 -6
3 -9 6 -5 3 3 1 14 -5 24 -6 10 -11 12 -11 6 0 -7 -6 -13 -13 -13 -14 0 -40
-67 -31 -82 3 -4 1 -8 -4 -8 -10 0 -33 -46 -37 -75 -4 -26 -45 -137 -57 -152
-9 -12 -26 -61 -34 -102 -3 -14 -14 -46 -25 -72 -16 -36 -25 -46 -37 -42 -14
5 -15 3 -4 -8 17 -19 15 -34 -3 -19 -17 14 -19 7 -6 -19 5 -9 6 -23 1 -30 -6
-11 -12 -10 -31 4 l-24 17 27 -6 28 -6 -20 32 c-23 37 -26 53 -8 42 8 -5 9 -2
5 10 -4 10 -4 29 0 44 5 21 7 23 12 9 4 -12 14 5 30 53 13 38 28 67 32 64 5
-3 6 2 3 10 -3 9 -10 13 -15 10 -5 -3 -9 0 -9 5 0 6 5 11 11 11 6 0 16 6 22
13 14 14 17 57 5 57 -5 0 -7 4 -4 9 4 5 3 16 0 25 -6 15 -8 14 -23 -3 -16 -18
-18 -19 -40 -2 -18 14 -22 23 -16 42 l7 24 -18 -24 c-10 -15 -18 -44 -19 -70
-1 -48 -33 -144 -45 -136 -3 2 -6 -12 -6 -31 1 -30 3 -32 14 -17 6 9 12 20 12
25 0 4 5 8 11 8 6 0 7 -5 2 -12 -4 -7 -8 -31 -8 -53 0 -24 -5 -39 -12 -38 -6
1 -14 -9 -17 -22 -4 -14 -11 -25 -17 -25 -6 0 -8 8 -5 18 4 11 -1 8 -15 -8
-20 -24 -21 -19 -2 27 6 15 5 16 -8 3 -9 -8 -16 -19 -16 -25 0 -5 -3 -21 -7
-35 -6 -20 -5 -22 4 -10 9 12 10 9 5 -15 -3 -16 -11 -34 -17 -40 -8 -7 -9 -6
-4 3 4 6 3 12 -2 12 -5 0 -17 -21 -26 -47 -24 -66 -35 -113 -27 -110 3 0 16
-4 29 -11 14 -8 22 -9 22 -2 0 5 -4 10 -10 10 -5 0 -10 7 -10 16 0 14 3 14 15
4 13 -11 14 -10 9 4 -7 19 -16 20 -33 4 -11 -11 -12 -8 -6 12 4 14 13 39 21
55 l13 30 -5 -30 c-4 -23 -3 -27 5 -15 9 13 11 13 11 -2 0 -10 -8 -18 -17 -19
-14 0 -15 -2 -3 -6 24 -10 31 -26 24 -62 -8 -49 -27 -65 -44 -37 -12 20 -12
20 5 6 15 -13 17 -13 14 -1 -9 26 -27 23 -44 -6 l-16 -28 7 35 c8 43 2 38 -18
-15 -14 -36 -14 -42 -1 -54 13 -12 14 -11 9 6 -5 16 -1 22 18 25 18 4 23 1 18
-10 -3 -10 -1 -13 6 -8 6 3 16 -3 22 -15 7 -11 14 -18 17 -16 2 3 0 15 -7 26
-7 14 -7 21 0 21 10 0 14 -18 12 -60 -1 -16 5 -7 18 25 24 59 25 69 4 35 l-15
-25 8 25 c4 14 7 38 7 53 -1 16 2 24 6 17 6 -9 9 -9 13 1 4 8 4 2 1 -13 -4
-16 -2 -28 2 -28 5 0 10 12 11 26 0 15 6 30 13 34 9 5 9 9 1 14 -6 4 -11 2
-11 -5 0 -7 -3 -10 -6 -6 -3 3 -3 15 1 28 6 17 9 19 16 8 7 -11 9 -10 9 4 0
10 4 15 10 12 6 -4 6 3 0 21 -6 15 -8 29 -5 32 3 3 5 0 5 -6 0 -7 5 -12 11
-12 5 0 7 5 4 10 -8 14 18 13 32 -1 16 -16 -71 -265 -92 -263 -18 2 -20 -13
-4 -18 9 -3 9 -13 0 -41 -11 -32 -15 -36 -32 -27 -13 8 -19 7 -19 0 0 -6 7
-13 15 -16 8 -4 15 -10 15 -15 0 -4 -6 -6 -14 -3 -18 7 -30 -26 -15 -40 9 -8
10 -7 6 7 -4 9 -2 17 3 17 13 0 13 -9 -6 -64 -13 -38 -19 -45 -30 -35 -11 9
-14 8 -14 -4 0 -8 5 -17 11 -19 9 -3 9 -13 0 -41 -7 -21 -17 -34 -23 -31 -6 4
-5 10 3 16 11 7 11 11 2 15 -18 7 -16 24 2 17 8 -4 15 -2 15 4 0 5 -9 12 -20
15 -20 5 -20 5 0 63 11 32 18 64 15 72 -3 8 0 10 7 6 8 -5 9 2 4 22 -4 18 -3
24 2 16 6 -9 9 0 9 28 0 29 -3 38 -9 28 -7 -9 -8 -8 -4 5 3 10 6 23 6 28 0 6
5 7 10 4 6 -3 10 -2 10 4 0 18 -23 24 -32 8 -5 -10 -15 -14 -26 -10 -14 5 -15
3 -4 -8 17 -18 15 -34 -2 -17 -7 8 -17 24 -21 37 -4 13 -10 19 -15 15 -11 -13
-43 -114 -37 -120 2 -3 8 7 11 21 4 14 11 23 16 20 5 -3 7 -13 4 -23 -5 -14
-4 -15 5 -2 8 12 13 12 23 2 9 -9 9 -12 -1 -12 -8 0 -11 -7 -8 -19 4 -15 1
-18 -12 -13 -14 5 -14 4 -2 -11 12 -15 12 -22 1 -45 -8 -15 -13 -31 -11 -35 1
-5 -3 -6 -9 -2 -8 5 -8 11 0 20 8 9 6 14 -5 19 -10 3 -15 -1 -16 -12 0 -9 -2
-27 -3 -40 -2 -13 1 -25 6 -28 4 -3 8 -10 8 -15 0 -6 -4 -8 -9 -5 -5 4 -12 0
-15 -6 -4 -7 -4 4 -2 25 3 25 1 35 -6 31 -7 -5 -9 2 -4 22 12 47 -8 14 -28
-46 -37 -113 -49 -139 -59 -133 -6 3 -7 1 -3 -6 4 -6 4 -25 1 -43 -5 -23 -9
-27 -16 -17 -6 9 -7 4 -3 -15 4 -16 3 -27 -2 -23 -5 3 -9 -8 -9 -23 0 -15 3
-26 8 -23 4 2 7 11 7 19 0 8 4 14 10 14 5 0 7 6 4 14 -4 10 0 13 13 10 11 -3
25 2 33 11 12 14 11 16 -12 10 -24 -6 -25 -4 -20 21 5 25 6 26 12 9 7 -20 7
-20 12 0 4 20 4 19 16 -2 9 -15 9 -29 1 -52 -11 -31 -29 -42 -29 -18 0 8 -3 7
-9 -3 -6 -8 -8 -17 -5 -21 2 -4 -2 -10 -8 -13 -7 -3 11 -4 41 -3 l54 2 42 125
c26 77 44 117 47 105 2 -11 1 -30 -4 -42 -4 -13 -5 -30 -1 -40 4 -10 2 -14 -4
-10 -12 8 -38 -66 -29 -82 4 -6 4 -10 -1 -9 -13 5 -14 -11 -1 -32 12 -18 24
-20 121 -20 102 0 108 1 117 22 8 20 9 21 9 4 1 -25 6 -18 15 17 4 17 3 26 -3
23 -5 -4 -7 3 -3 16 5 21 6 21 13 2 6 -15 8 -16 8 -2 1 9 4 25 7 35 4 13 3 14
-4 5 -7 -11 -11 -10 -16 4 -4 10 -4 15 0 11 9 -9 64 90 78 144 l7 24 -16 -25
c-10 -15 -14 -17 -11 -7 3 10 6 23 6 28 0 5 7 9 15 9 8 0 15 4 15 9 0 5 3 17
7 27 5 13 3 15 -8 9 -11 -6 -12 -5 -1 6 6 7 12 22 12 34 0 11 7 39 15 63 9 24
12 48 9 54 -4 7 -2 8 4 4 7 -4 13 0 14 11 1 10 2 25 4 33 1 8 2 23 3 33 1 10
12 22 25 26 13 5 26 19 29 30 3 12 2 19 -2 16 -5 -2 -8 9 -7 24 1 16 4 27 8
25 9 -6 21 33 14 45 -4 5 -1 11 4 13 6 2 12 10 13 18 3 19 26 58 27 45 0 -5 5
-3 10 5 13 20 13 33 0 25 -6 -4 -3 12 6 34 9 23 13 48 10 57 -5 13 -4 14 7 6
16 -13 27 -6 27 17 0 12 -2 13 -8 3 -6 -8 -9 -2 -9 18 0 20 3 26 9 18 6 -11 8
-11 8 0 0 7 4 11 9 8 13 -8 24 45 12 57 -14 14 -14 30 -1 22 6 -4 10 6 10 24
0 22 4 29 14 25 8 -3 19 3 25 14 8 15 7 21 -3 25 -9 4 -12 14 -9 26 3 12 9 19
13 16 8 -5 24 24 22 38 -1 4 3 7 8 7 7 0 7 7 -1 21 -6 12 -7 19 -2 16 4 -3 9
13 9 34 1 31 -2 39 -13 35 -8 -3 -11 -1 -8 4 3 6 12 10 20 10 7 0 18 13 23 29
8 24 8 29 -3 25 -7 -3 -15 -15 -18 -26 -4 -14 -11 -19 -21 -15 -9 4 -16 2 -16
-4 0 -6 -4 -8 -9 -5 -5 4 -7 -4 -4 -16 3 -17 2 -19 -5 -9 -9 12 -11 12 -14 0
-3 -8 -3 0 -1 16 l4 30 -16 -25 c-10 -15 -14 -18 -11 -7 17 53 16 63 -3 84
-12 12 -18 29 -15 37 3 9 4 16 1 16 -3 0 -11 -16 -17 -35z"/>
<path d="M23940 1404 c-54 -75 -78 -105 -259 -339 -52 -66 -96 -128 -99 -137
-2 -10 -8 -18 -13 -18 -4 0 -54 -57 -111 -127 -56 -71 -141 -173 -188 -228
-126 -148 -260 -312 -260 -320 0 -3 -10 -16 -23 -28 -12 -12 -58 -64 -101
-115 -55 -66 -72 -92 -59 -91 10 0 41 28 69 62 220 268 496 597 506 603 12 8
-84 -112 -259 -323 -94 -112 -116 -147 -65 -102 l27 24 -24 -27 c-14 -16 -27
-26 -29 -23 -7 7 -42 -25 -42 -38 0 -6 10 -2 22 9 13 10 2 -6 -23 -36 -26 -30
-51 -55 -57 -55 -5 0 -28 -21 -51 -46 -40 -46 -40 -46 -15 -46 17 0 35 12 57
39 63 79 199 238 203 238 3 0 -2 -10 -11 -23 -8 -13 -12 -27 -8 -31 5 -4 3 -6
-3 -4 -13 4 -94 -90 -94 -109 0 -7 -4 -12 -8 -11 -5 2 -28 -19 -52 -47 l-43
-50 92 -3 c65 -2 98 1 109 10 12 10 14 10 8 1 -5 -10 9 -13 61 -13 l68 0 35
43 c93 115 271 309 254 277 -8 -15 -122 -154 -216 -262 l-49 -58 297 0 c294 0
298 0 323 22 14 13 20 16 14 8 -20 -22 -16 -26 32 -29 l45 -2 0 741 c0 407 -1
740 -3 740 -1 0 -27 -34 -57 -76z"/>
<path d="M64902 1428 c-11 -29 -68 -185 -127 -346 -60 -160 -110 -291 -111
-289 -5 4 37 133 76 237 17 47 35 96 40 110 4 14 17 49 29 78 24 60 24 62 12
62 -5 0 -25 -46 -44 -102 -20 -57 -59 -166 -87 -243 -98 -266 -149 -415 -140
-415 4 0 15 18 24 40 21 54 27 51 10 -5 -15 -50 -33 -87 -34 -67 0 18 -17 15
-23 -5 -3 -10 -23 -69 -46 -132 -22 -62 -40 -116 -39 -120 1 -3 -2 -13 -5 -21
-24 -54 -73 -210 -66 -210 4 0 13 8 19 18 11 16 11 16 6 -1 -4 -14 1 -17 34
-17 27 0 39 4 38 13 -2 6 2 11 8 10 8 -1 10 6 6 19 -3 14 -1 19 6 14 7 -4 10
-2 7 6 -7 19 21 103 33 101 6 -1 8 10 6 26 -3 17 1 35 9 42 15 15 17 20 18 47
0 15 2 14 10 -3 7 -15 8 -10 4 18 -5 31 -2 41 20 62 27 28 34 45 10 25 -22
-18 -18 3 5 30 22 25 26 35 10 25 -6 -3 -10 5 -10 19 0 13 3 26 8 28 4 2 15
19 24 38 17 35 17 35 17 8 1 -16 5 -28 10 -28 4 0 5 18 1 40 -5 25 -3 43 3 47
6 3 7 1 3 -5 -4 -7 -3 -12 2 -12 6 0 9 16 7 36 -4 38 3 67 14 60 3 -2 6 6 6
17 1 12 4 33 9 47 7 25 7 25 -10 5 -14 -17 -16 -17 -11 -2 4 10 2 25 -4 35 -8
12 -6 27 6 55 13 33 18 37 31 26 10 -8 13 -22 9 -43 -4 -21 1 -15 15 19 25 62
27 87 4 59 -8 -10 -12 -13 -8 -5 5 11 3 13 -10 8 -14 -6 -16 -3 -10 16 10 33
23 55 24 39 0 -10 4 -9 16 3 13 13 19 13 32 3 13 -11 14 -10 4 9 -15 28 -15
36 1 27 8 -5 8 -3 -2 9 -7 9 -11 26 -8 37 3 11 1 18 -4 14 -5 -3 -9 -1 -9 4 0
6 7 13 16 16 10 4 13 13 9 25 -3 11 9 56 28 107 19 48 36 81 39 73 3 -8 7 -5
10 9 4 13 2 20 -3 16 -13 -7 -3 34 28 115 13 35 21 66 19 68 -2 3 -13 -20 -24
-49z"/>
<path d="M69101 1389 c-26 -70 -50 -169 -45 -185 5 -16 4 -16 -5 -4 -6 9 -11
10 -11 3 0 -6 -3 -19 -7 -29 -5 -13 -3 -15 7 -9 10 6 12 4 7 -9 -4 -10 -7 -21
-7 -24 0 -4 -5 0 -11 8 -8 12 -9 10 -5 -10 16 -68 16 -75 5 -45 -7 17 -15 32
-19 35 -5 3 9 57 31 120 40 119 45 141 31 125 -9 -10 -43 -114 -49 -146 -1 -9
-11 -36 -21 -60 -11 -25 -22 -60 -26 -79 l-7 -35 15 33 c8 17 17 32 19 32 2 0
3 -25 1 -55 -3 -45 -1 -53 10 -43 8 7 11 19 9 25 -4 11 6 17 27 15 3 0 6 12 6
26 3 50 8 77 20 101 7 13 10 30 7 39 -5 11 -3 13 6 7 10 -5 11 -2 6 14 -4 13
-2 21 5 21 7 0 10 6 7 14 -3 8 -1 17 6 19 9 3 9 8 0 18 -11 11 -13 10 -14 -6
-1 -11 -1 -23 -1 -27 1 -3 -6 -12 -15 -19 -14 -12 -15 -11 -9 11 4 14 16 49
27 79 11 29 17 56 15 59 -3 2 -10 -6 -15 -19z"/>
<path d="M64281 1363 c1 -4 -1 -15 -4 -23 -10 -24 -138 -373 -147 -400 -4 -14
-32 -90 -60 -170 -101 -282 -203 -590 -197 -596 2 -2 14 5 27 16 13 11 20 20
15 20 -4 0 -2 6 4 13 6 8 9 16 6 19 -8 8 24 78 35 78 6 0 5 9 -2 21 -11 17
-10 22 5 30 9 6 17 19 17 30 0 11 7 33 14 48 8 15 12 38 9 51 -4 16 -3 21 5
16 8 -5 10 -1 5 10 -4 11 -2 15 4 11 12 -8 37 69 27 85 -4 7 -3 8 4 4 15 -9
15 -1 2 25 -8 14 -7 19 1 19 6 0 8 7 5 16 -5 14 -4 15 9 4 12 -10 15 -9 16 6
1 11 1 27 0 37 -1 9 3 17 9 17 17 0 35 56 39 123 1 12 6 16 14 11 6 -4 9 -4 5
1 -4 4 -2 17 4 29 7 11 13 23 13 26 1 3 7 17 13 32 6 15 9 35 5 45 -4 11 -3
14 5 9 8 -5 10 -2 6 8 -4 9 -1 16 6 16 7 0 10 6 7 14 -3 8 -1 16 5 18 6 2 12
21 15 42 2 21 10 51 19 67 8 16 14 31 14 34 -1 22 1 25 12 19 8 -5 9 -2 5 9
-3 10 -2 17 2 17 11 0 19 90 8 97 -4 2 -7 1 -6 -4z"/>
<path d="M19145 1278 c-27 -35 -138 -169 -246 -298 -108 -129 -211 -255 -230
-280 -19 -25 -46 -58 -61 -75 -132 -149 -518 -618 -513 -623 3 -3 12 -2 19 3
12 9 207 238 306 359 19 24 106 128 193 232 88 104 175 209 195 234 96 116
253 300 257 300 5 0 -52 -70 -252 -313 -40 -48 -70 -93 -67 -100 2 -7 -7 -24
-21 -37 -14 -13 -25 -20 -25 -16 0 5 -7 3 -15 -4 -8 -7 -15 -17 -15 -22 0 -6
8 -4 17 3 9 8 4 -3 -12 -23 -16 -20 -31 -35 -34 -33 -2 3 2 11 9 20 7 8 10 15
7 15 -3 0 -16 -15 -28 -32 -20 -29 -21 -31 -4 -18 19 14 19 14 6 -3 -8 -9 -16
-15 -19 -12 -7 6 -32 -15 -32 -27 0 -5 6 -6 13 -2 8 6 8 3 -1 -9 -8 -9 -19
-15 -24 -14 -10 2 -428 -481 -428 -495 0 -4 226 -7 502 -8 l502 0 28 27 28 27
0 615 -1 616 -37 -45 c-20 -25 -50 -58 -66 -75 -15 -16 2 7 39 52 43 54 65 90
63 103 -2 16 -13 8 -53 -42z"/>
<path d="M14378 1213 c-10 -11 -18 -23 -18 -27 0 -4 -10 -17 -23 -29 -21 -20
-509 -598 -661 -784 -33 -40 -64 -69 -69 -66 -6 3 -7 1 -3 -5 6 -10 -50 -84
-184 -244 -39 -45 -49 -63 -32 -56 13 5 117 125 273 314 128 154 297 357 401
480 279 330 339 405 336 420 -3 14 -5 14 -20 -3z"/>
<path d="M14332 1096 c-61 -73 -74 -94 -49 -80 7 4 9 3 4 -2 -5 -5 -14 -9 -20
-9 -16 0 -669 -773 -795 -941 -18 -24 -27 -44 -22 -44 6 0 8 -5 5 -10 -7 -12
31 -8 42 5 5 4 1 5 -7 0 -9 -5 -12 -5 -7 1 5 5 12 9 15 9 4 0 14 4 22 10 13 7
13 6 2 -7 -22 -28 7 -33 36 -7 26 23 26 23 8 1 l-19 -22 133 1 133 1 51 56
c92 102 122 131 74 72 -24 -30 -57 -72 -72 -92 l-28 -38 281 0 281 0 0 338
c-1 268 -3 334 -13 321 -40 -53 -219 -259 -224 -259 -3 0 15 23 39 51 23 28
50 60 58 72 8 12 43 53 77 91 l63 68 0 85 c0 54 -4 82 -10 78 -5 -3 -10 -2
-10 4 0 5 5 13 10 16 6 4 10 54 10 117 0 108 -1 111 -18 92 -10 -10 -73 -83
-141 -161 -67 -79 -124 -143 -127 -143 -3 0 37 50 88 112 172 206 191 232 194
260 2 15 2 28 1 28 -1 0 -31 -33 -65 -74z"/>
<path d="M9476 985 c-65 -79 -123 -142 -129 -138 -6 3 -7 1 -3 -6 5 -7 -10
-33 -36 -64 -108 -127 -260 -319 -256 -323 3 -2 54 54 114 124 60 70 113 132
119 138 5 6 57 68 115 139 58 70 126 153 153 183 26 30 47 63 47 74 0 10 -1
18 -2 18 -2 0 -56 -65 -122 -145z"/>
<path d="M9579 1051 c-8 -10 -67 -81 -131 -158 -181 -216 -267 -328 -257 -331
5 -2 6 -8 3 -13 -3 -6 -7 -21 -9 -35 -2 -23 -1 -24 16 -8 24 22 25 41 2 23
-10 -7 -7 -1 6 14 14 15 27 25 29 22 3 -3 14 3 25 12 22 19 -15 -42 -63 -107
-47 -62 -43 -66 7 -10 110 121 120 127 27 15 -71 -85 -78 -95 -67 -95 6 0 34
24 63 53 l53 52 -42 -54 c-31 -40 -39 -56 -29 -62 12 -8 19 -4 82 51 l30 25
-31 -41 c-34 -43 -31 -71 6 -61 12 3 19 1 15 -4 -12 -21 20 -7 47 20 36 36 39
27 3 -10 -14 -15 -24 -33 -22 -39 2 -7 61 55 131 136 l127 149 0 238 c-1 130
-3 237 -4 237 -2 0 -10 -8 -17 -19z"/>
<path d="M58105 343 c-16 -43 -33 -87 -39 -98 -6 -11 -11 -22 -11 -25 -1 -3
-7 -23 -13 -45 -7 -24 -8 -41 -2 -43 5 -2 6 -10 3 -18 -3 -9 -9 -11 -12 -6 -3
5 -15 0 -26 -11 -11 -11 -14 -17 -7 -13 6 4 12 2 12 -3 0 -6 -7 -11 -16 -11
-14 0 -14 -1 0 -16 22 -21 20 -27 -4 -14 -17 9 -20 8 -20 -13 0 -22 5 -24 50
-26 44 -1 50 1 50 19 0 11 4 28 10 38 32 58 25 172 -9 140 -11 -10 -10 -8 0
10 14 22 14 22 23 2 10 -23 21 -26 32 -8 4 6 3 8 -4 4 -6 -3 -13 -2 -16 2 -7
12 15 82 24 77 4 -2 5 7 2 20 -2 14 -8 22 -13 20 -4 -3 -2 16 6 42 23 76 10
61 -20 -24z"/>
<path d="M59260 274 c-8 -19 -7 -31 2 -42 11 -13 10 -15 -4 -10 -20 8 -31 -15
-23 -46 5 -17 4 -18 -5 -6 -10 12 -11 11 -7 -8 3 -12 1 -20 -4 -16 -5 3 -9 11
-9 19 0 8 -5 17 -12 21 -8 5 -9 0 -6 -14 4 -12 2 -20 -2 -17 -11 7 -33 -62
-24 -76 4 -8 3 -9 -4 -5 -7 4 -17 -7 -27 -30 -8 -20 -15 -38 -15 -40 0 -2 56
-3 125 -3 l124 0 -9 25 c-7 18 -7 23 1 18 7 -4 9 0 5 13 -4 11 -1 33 5 49 21
55 28 85 18 78 -6 -3 -15 -18 -20 -32 -8 -21 -12 -23 -19 -12 -7 11 -11 8 -21
-14 -10 -22 -14 -24 -21 -11 -5 8 -6 20 -3 25 3 6 1 10 -5 10 -7 0 -10 6 -7
14 8 20 -4 28 -20 14 -7 -6 -16 -8 -20 -5 -3 4 6 12 21 18 14 7 26 17 26 22 0
5 -8 3 -17 -4 -15 -12 -16 -12 -11 2 4 9 2 21 -3 26 -6 6 -6 19 0 36 6 15 8
27 6 27 -3 0 -10 -12 -15 -26z"/>
</g>
</svg>
